<?xml version='1.0' encoding='UTF-8'?>
<svg xmlns="http://www.w3.org/2000/svg" xmlns:xlink="http://www.w3.org/1999/xlink" width="378" height="200" viewBox="0 0 34 18" version="1.1">
    <title>icon/yellow/napisz do nas</title>
    <g id="LANDINGI" stroke="none" stroke-width="1" fill="none" fill-rule="evenodd">
        <g id="LANDING---PO-KUPIENIU-DOMENY" transform="translate(-1315.000000, -76.000000)" fill="#FFCD02">
            <g id="icon/yellow/napisz-do-nas" transform="translate(1315.000000, 75.000000)">
                <g id="Group-20" transform="translate(0.000000, -8.625000)">
                    <path d="M22.425,9.97164369 C23.5833186,9.97164369 24.5301541,10.8771107 24.5963078,12.0188459 L24.6,12.1466437 L24.6,25.604282 L32.9986459,25.6050055 C33.3427618,25.6050055 33.6267347,25.862508 33.6683867,26.1953349 L33.6736459,26.2800055 C33.6736459,26.6241214 33.4161434,26.9080943 33.0833165,26.9497463 L32.9986459,26.9550055 L23.925,26.9550055 C23.5808841,26.9550055 23.2969112,26.697503 23.2552592,26.3646761 L23.25,26.2800055 L23.25,12.1466437 C23.25,11.7213844 22.928242,11.3712758 22.5148928,11.3264847 L22.425,11.3216437 L5.175,11.3216437 C4.74974074,11.3216437 4.3996321,11.6434017 4.35484099,12.0567508 L4.35,12.1466437 L4.35,22.7266608 C4.35,23.5945179 3.09470663,23.6255128 3.00504282,22.8196455 L3,22.7266608 L3,12.1466437 C3,10.988325 3.90546697,10.0414895 5.04720223,9.97533589 L5.175,9.97164369 L22.425,9.97164369 Z" id="Path-Copy" fill-rule="nonzero"/>
                    <path d="M7.24236362,3.75196267 C7.58549523,3.72595425 7.88811808,3.96125742 7.9548061,4.2899843 L7.96644971,4.37401519 L8.8635,16.209032 L20.5872089,17.1025064 C20.9303302,17.1286511 21.1939182,17.4069846 21.2101627,17.7420141 L21.2089737,17.8268395 C21.182829,18.1699608 20.9044955,18.4335488 20.569466,18.4497933 L20.4846406,18.4486043 L8.18298052,17.5112572 C7.87824469,17.4880373 7.63089291,17.264057 7.57237441,16.9708177 L7.56119539,16.889225 L6.6203111,4.47604876 C6.59213531,4.10432285 6.87063771,3.78013847 7.24236362,3.75196267 Z" id="Path" fill-rule="nonzero" transform="translate(13.914256, 11.099897) rotate(-45.000000) translate(-13.914256, -11.099897) "/>
                    <path d="M4.35,22.7266608 C4.35,24.3252584 5.78696441,25.7057367 7.46974827,25.7879341 L7.62819308,25.7918036 L7.62819308,27.1418036 C5.2107207,27.1418036 3.09809671,25.234376 3.00331704,22.8908515 L3,22.7266608 L4.35,22.7266608 Z" id="Path-Copy-14" fill-rule="nonzero"/>
                    <path d="M13.4048584,25.8016608 C13.7776506,25.8016608 14.0798584,26.1038686 14.0798584,26.4766608 C14.0798584,26.8207767 13.8223559,27.1047496 13.489529,27.1464016 L13.4048584,27.1516608 L0.0751280488,27.151223 L0.0751280488,25.801223 L13.4048584,25.8016608 Z" id="Path-10-Copy-8" fill-rule="nonzero"/>
                </g>
            </g>
        </g>
    </g>
</svg>
