<?xml version='1.0' encoding='UTF-8'?>
<svg xmlns="http://www.w3.org/2000/svg" width="1259" height="200" viewBox="0 0 170 27" fill="none">
<path fill-rule="evenodd" clip-rule="evenodd" d="M47.1599 22.0732V17.1549H51.0756V15.6141H47.1599V11.2789H45.4547V15.6141H37.1373L47.0728 3.92675H45.0296L34.8 15.9433V17.1549H45.4281V22.0732H47.1599ZM46.9599 15.8141V15.8141L50.8756 15.8141H46.9599ZM45.6281 21.8732L45.6281 16.9549H45.6281V21.8732ZM35 16.9549H35V16.0169L45.122 4.12675H46.6403L46.6403 4.12676H45.122L35 16.0169V16.9549ZM46.9599 11.4789V11.4789H45.6547V15.8141H36.7048L36.7048 15.8141H45.6547V11.4789H46.9599ZM61.2186 16.2676C61.7463 16.2676 62.3201 16.2295 62.9395 16.1537L67.3782 22.0732H69.4233L64.6946 15.7723C65.9954 15.3652 67.0155 14.7045 67.7415 13.7834C68.537 12.7797 68.9301 11.5511 68.9301 10.1098C68.9301 8.18025 68.2419 6.65741 66.8567 5.56723C65.4782 4.46545 63.5908 3.92675 61.2186 3.92675H54.3327V22.0732H56.0912V16.2676H61.2186ZM54.5327 21.8732V4.12675H61.2186C62.0976 4.12675 62.9054 4.20162 63.6421 4.35135C62.9054 4.20162 62.0976 4.12676 61.2186 4.12676H54.5327L54.5327 21.8732ZM67.2006 6.1363C67.0549 5.99237 66.8989 5.85492 66.7324 5.72393ZM65.6479 6.71623L65.6494 6.71745C66.6415 7.50165 67.145 8.62252 67.145 10.1098C67.145 11.5967 66.6417 12.7268 65.6487 13.5282C64.6499 14.3173 63.1831 14.7267 61.2186 14.7267H56.0912V5.49294H61.2186C63.1828 5.49294 64.6492 5.91073 65.6479 6.71623ZM62.4771 14.8652C63.8602 14.7218 64.959 14.3283 65.7735 13.6845C66.2318 13.3148 66.5899 12.8787 66.8478 12.3764C66.5899 12.8787 66.2318 13.3148 65.7735 13.6845C64.959 14.3283 63.8602 14.7218 62.4771 14.8652ZM55.8912 14.9267L61.2186 14.9268C61.3429 14.9268 61.4653 14.9251 61.586 14.9219C61.4653 14.9251 61.3429 14.9267 61.2186 14.9267H55.8912ZM73.504 3.92675V22.0732H86.7696V20.507H75.2624V13.631H85.198V12.0901H75.2624V5.49294H86.37V3.92675H73.504ZM86.17 4.12676L86.17 4.12675H73.704V21.8732L73.704 4.12676H86.17ZM92.4383 21.5283L92.4415 21.5294C93.7067 21.9767 95.0345 22.2 96.4237 22.2C97.9155 22.2 99.1865 21.9863 100.23 21.5508C101.267 21.1177 102.048 20.5305 102.555 19.781C103.075 19.0381 103.336 18.2126 103.336 17.3098C103.336 16.2245 103.032 15.3427 102.403 14.6888C101.813 14.0401 101.094 13.5582 100.249 13.2436C99.4213 12.9352 98.3201 12.6203 96.9489 12.2982C95.7267 12.0116 94.7672 11.7432 94.067 11.4933C93.3809 11.2484 92.8119 10.8996 92.3556 10.4492C91.921 10.0202 91.6959 9.44133 91.6959 8.69013C91.6959 7.70952 92.1066 6.91402 92.947 6.29015C93.7859 5.66732 95.0414 5.34083 96.7434 5.34083C97.5938 5.34083 98.4544 5.46469 99.3255 5.71343L99.3265 5.71371C100.213 5.96198 101.02 6.32552 101.748 6.80375L101.938 6.92867L102.62 5.52837L102.475 5.43126C101.727 4.92764 100.846 4.53092 99.8355 4.23883C98.8231 3.94632 97.7922 3.79999 96.7434 3.79999C95.2518 3.79999 93.9891 4.01359 92.9626 4.44971L92.9614 4.45023C91.9574 4.88458 91.1955 5.48133 90.6903 6.24669C90.1887 6.9896 89.9374 7.81424 89.9374 8.71548C89.9374 9.81683 90.2321 10.7216 90.84 11.4086L90.8439 11.4128C91.4514 12.0611 92.179 12.543 93.0243 12.8578L93.0256 12.8583C93.8707 13.1663 94.9802 13.4811 96.3514 13.8032L96.3534 13.8036C97.5573 14.0732 98.5073 14.3331 99.2066 14.5827C99.8928 14.8276 100.462 15.1764 100.918 15.6268C101.353 16.0558 101.578 16.6347 101.578 17.3859C101.578 18.3464 101.161 19.1245 100.304 19.7326C99.4465 20.3404 98.1543 20.6591 96.3971 20.6591C95.195 20.6591 94.0467 20.4604 92.951 20.0633C91.8703 19.6484 91.0179 19.1213 90.3856 18.487L90.2093 18.31L89.3776 19.6178L89.4882 19.7312C90.2068 20.4678 91.1938 21.0647 92.4383 21.5283ZM94.0416 4.3C94.8288 4.09999 95.7293 4 96.7434 4C97.6446 4 98.5322 4.10999 99.4062 4.32996C98.5322 4.10998 97.6446 3.99999 96.7434 3.99999C95.7293 3.99999 94.8287 4.09999 94.0416 4.3ZM109.397 20.189L109.398 20.19C110.759 21.538 112.654 22.2 115.053 22.2C117.452 22.2 119.346 21.538 120.707 20.19C122.071 18.8393 122.738 16.8791 122.738 14.3436V3.92675H120.979V14.2929C120.979 16.4445 120.462 18.0162 119.464 19.0468C118.465 20.0786 117.014 20.6084 115.08 20.6084C113.127 20.6084 111.667 20.0782 110.668 19.0468C109.67 18.0162 109.153 16.4445 109.153 14.2929V3.92675H107.395V14.3436C107.395 16.8784 108.052 18.8382 109.397 20.189ZM130.435 3.92675H128.677V22.0732H141.17V20.507H130.435V3.92675ZM130.235 4.12675L130.235 4.12676H128.877L128.877 21.8732V4.12675H130.235ZM154.556 3.92675H139.372V5.49294H146.085V22.0732H147.843V5.49294H154.556V3.92675ZM154.356 4.12675L154.356 4.12676H139.572L139.572 5.29294V4.12675H154.356ZM158.302 21.5283L158.305 21.5294C159.57 21.9767 160.898 22.2 162.287 22.2C163.779 22.2 165.05 21.9863 166.094 21.5508C167.131 21.1177 167.912 20.5305 168.419 19.781C168.939 19.0381 169.2 18.2126 169.2 17.3098C169.2 16.2244 168.896 15.3425 168.267 14.6885C167.677 14.0399 166.958 13.5582 166.113 13.2436C165.285 12.9352 164.184 12.6203 162.813 12.2982C161.591 12.0116 160.631 11.7432 159.931 11.4933C159.245 11.2484 158.676 10.8996 158.219 10.4492C157.785 10.0202 157.56 9.44133 157.56 8.69013C157.56 7.70952 157.97 6.91402 158.811 6.29015C159.65 5.66732 160.905 5.34083 162.607 5.34083C163.458 5.34083 164.318 5.46469 165.189 5.71343L165.19 5.71371C166.077 5.96198 166.884 6.32552 167.612 6.80375L167.802 6.92866L168.483 5.52838L168.339 5.43126C167.591 4.92765 166.71 4.53092 165.699 4.23883C164.687 3.94632 163.656 3.79999 162.607 3.79999C161.116 3.79999 159.853 4.01359 158.826 4.44971L158.825 4.45023C157.821 4.88458 157.059 5.48133 156.554 6.24669C156.053 6.9896 155.801 7.81424 155.801 8.71548C155.801 9.81683 156.096 10.7216 156.704 11.4086L156.708 11.4128C157.315 12.0611 158.043 12.543 158.888 12.8578L158.889 12.8583C159.734 13.1663 160.844 13.4811 162.215 13.8032L162.217 13.8036C163.421 14.0732 164.371 14.3331 165.07 14.5827C165.757 14.8276 166.325 15.1764 166.782 15.6268C167.216 16.0558 167.442 16.6347 167.442 17.3859C167.442 18.3464 167.025 19.1245 166.167 19.7326C165.31 20.3404 164.018 20.6591 162.261 20.6591C161.059 20.6591 159.91 20.4604 158.815 20.0633C157.734 19.6484 156.882 19.1213 156.249 18.487L156.073 18.31L155.241 19.6178L155.352 19.7312C156.071 20.4678 157.058 21.0647 158.302 21.5283ZM158.905 4.63379C159.899 4.21127 161.133 4 162.607 4C163.508 4 164.396 4.10999 165.27 4.32996C164.396 4.10998 163.508 3.99999 162.607 3.99999C161.133 3.99999 159.899 4.21126 158.905 4.63379ZM122.538 4.12676L122.538 4.12675H121.179V14.2929L121.179 4.12676H122.538ZM107.595 4.12675V14.3436L107.595 4.12676H108.953L108.953 4.12675H107.595Z" fill="white"/>
<path fill-rule="evenodd" clip-rule="evenodd" d="M0 13.5C0 11.2189 0.565739 9.07001 1.56456 7.18588L10.8273 16.4486C11.4131 17.0344 12.3628 17.0344 12.9486 16.4486C13.5344 15.8628 13.5344 14.9131 12.9486 14.3273L3.28949 4.66817C4.74834 2.98306 6.61736 1.6628 8.7413 0.862617L17.8273 9.9486C18.4131 10.5344 19.3628 10.5344 19.9486 9.9486C20.5344 9.36281 20.5344 8.41306 19.9486 7.82728L12.1846 0.0632673C12.6174 0.0214148 13.0562 0 13.5 0C20.9558 0 27 6.04416 27 13.5C27 15.9125 26.3672 18.1772 25.2585 20.1372L16.0607 10.9393C15.4749 10.3536 14.5251 10.3536 13.9393 10.9393C13.3536 11.5251 13.3536 12.4749 13.9393 13.0607L23.4752 22.5965C21.9669 24.2497 20.0531 25.5265 17.8911 26.2698L9.17272 17.5514C8.58694 16.9656 7.63719 16.9656 7.0514 17.5514C6.46562 18.1372 6.46562 19.0869 7.0514 19.6727L14.3522 26.9735C14.0704 26.9911 13.7862 27 13.5 27C6.04416 27 0 20.9558 0 13.5Z" fill="#900D09"/>
</svg>
