<?xml version='1.0' encoding='UTF-8'?>
<!-- Generator: Adobe Illustrator 27.9.0, SVG Export Plug-In . SVG Version: 6.00 Build 0)  -->
<svg xmlns="http://www.w3.org/2000/svg" xmlns:xlink="http://www.w3.org/1999/xlink" version="1.1" id="Ebene_1" x="0px" y="0px" width="1092" height="200" viewBox="0 0 262.029 48" style="enable-background:new 0 0 262.029 48;" xml:space="preserve">
<style type="text/css">
	.st0{fill:#EE334E;}
	.st1{fill:#00A651;}
	.st2{fill:#0081C8;}
	.st3{fill:#003781;}
	.st4{fill:#0078D0;}
	.st5{fill:#F0282D;}
	.st6{fill:#FFB114;}
</style>
<g>
	<g>
		<path class="st0" d="M236.266,0.276c-3.37-0.775-7.972,0.079-12.32,2.59c-6.802,3.926-10.405,10.418-8.05,14.499    c1.507,2.608,5.081,3.6,9.24,2.952c-1.902-0.438-3.413-1.395-4.262-2.867c-2.356-4.081,1.248-10.573,8.049-14.5    C231.379,1.532,233.915,0.642,236.266,0.276"/>
		<path class="st1" d="M236.324,16.378c1.013,3.307,4.054,6.865,8.402,9.375c6.802,3.926,14.225,3.802,16.582-0.279    c1.506-2.609,0.577-6.2-2.063-9.478c0.572,1.865,0.499,3.652-0.352,5.124c-2.356,4.081-9.781,4.206-16.582,0.279    C239.854,19.982,237.817,18.23,236.324,16.378"/>
		<path class="st2" d="M231.712,8.367c-2.356,2.531-3.917,6.944-3.917,11.964c0,7.853,3.82,14.22,8.532,14.22    c3.01,0,5.658-2.6,7.177-6.526c-1.331,1.428-2.915,2.257-4.615,2.257c-4.713,0-8.533-6.366-8.533-14.22    C230.356,13.227,230.855,10.585,231.712,8.367"/>
	</g>
	<g>
		<path class="st3" d="M95.505,18.151h-3.919l2.086-6.81L95.505,18.151z M89.553,25.662l1.337-4.476h5.283l1.251,4.476h4.896    L97.456,8.588c-0.28-1.009-0.891-1.474-1.951-1.474h-6.923v1.612h0.582c0.723,0,1.115,0.283,1.115,0.836    c0,0.363-0.081,0.667-0.369,1.499l-4.867,14.602H89.553z"/>
		<path class="st3" d="M107.957,25.662V8.534c0-0.891-0.523-1.42-1.388-1.42h-4.28v1.612h0.279c0.722,0,1.026,0.307,1.026,1.036    v15.9H107.957z"/>
		<path class="st3" d="M115.379,25.662V8.534c0-0.891-0.53-1.42-1.391-1.42h-4.28v1.612h0.274c0.726,0,1.031,0.307,1.031,1.036v15.9    H115.379z"/>
		<path class="st3" d="M122.992,8.807c0-1.243-0.92-1.998-2.502-1.998c-1.555,0-2.507,0.755-2.507,1.998    c0,1.257,0.952,2.003,2.507,2.003C122.073,10.81,122.992,10.064,122.992,8.807 M122.911,25.662V13.176    c0-0.89-0.53-1.417-1.393-1.417h-4.225v1.583h0.249c0.723,0,1.027,0.331,1.027,1.056v11.264H122.911z"/>
		<path class="st3" d="M132.469,18.984v2.703c-0.726,0.751-1.612,1.201-2.36,1.201c-0.782,0-1.057-0.385-1.057-1.426    c0-1.03,0.218-1.497,0.998-1.801C130.632,19.409,131.383,19.187,132.469,18.984 M126.597,15.739    c1.449-0.695,3.035-1.085,4.283-1.085c1.171,0,1.589,0.417,1.589,1.632v0.311c-1.779,0.281-2.333,0.394-3.338,0.616    c-0.578,0.136-1.115,0.301-1.643,0.525c-1.754,0.704-2.583,2.059-2.583,4.142c0,2.642,1.139,3.919,3.501,3.919    c0.863,0,1.643-0.166,2.34-0.442c0.61-0.27,0.971-0.498,1.863-1.193v0.194c0,0.86,0.442,1.304,1.306,1.304h3.976v-1.497h-0.195    c-0.75,0-1.027-0.336-1.027-1.224v-6.622c0-3.529-1.224-4.758-4.759-4.758c-1.138,0-2.25,0.144-3.331,0.393    c-1.09,0.248-1.649,0.471-2.947,1.112L126.597,15.739z"/>
		<path class="st3" d="M144.225,25.662v-9.399c0.726-0.808,1.474-1.171,2.337-1.171c0.921,0,1.14,0.363,1.14,1.762v8.809h4.337    V16.21c0-2.201-0.161-2.896-0.858-3.642c-0.584-0.643-1.474-0.975-2.619-0.975c-1.698,0-2.892,0.528-4.497,2.029v-0.556    c0-0.864-0.452-1.307-1.341-1.307h-4.119v1.583h0.25c0.722,0,1.031,0.331,1.031,1.056v11.264H144.225z"/>
		<path class="st3" d="M164.911,22.743h-6.063l5.785-8.115v-2.869h-9.063c-1.029,0-1.501,0.471-1.501,1.503v2.526h1.612v-0.248    c0-0.638,0.333-0.944,1.024-0.944h3.119l-5.841,8.205v2.861h10.928V22.743z"/>
		<path class="st3" d="M187.68,25.308V9.592c0-1.252-0.444-1.673-1.662-1.673h-3.677v1.754h0.22c0.84,0,1.002,0.189,1.002,1.199    v14.435H187.68z M189.493,25.308h4.086v-12.24c0-1.228-0.474-1.671-1.672-1.671h-2.414V25.308z M181.758,25.308V11.397h-2.42    c-1.197,0-1.667,0.443-1.667,1.671v12.24H181.758z M197.444,17.32c0,6.925-4.978,11.959-11.819,11.959    c-6.841,0-11.821-5.034-11.821-11.959c0-6.927,4.98-11.961,11.821-11.961C192.466,5.358,197.444,10.425,197.444,17.32     M199.863,17.32c0-8.143-6.091-14.241-14.238-14.241c-8.151,0-14.241,6.098-14.241,14.241c0,8.152,6.09,14.237,14.241,14.237    C193.772,31.557,199.863,25.472,199.863,17.32"/>
	</g>
	<g>
		<path class="st4" d="M22.036,12.268c0-6.085-4.933-11.019-11.019-11.019C4.934,1.249,0,6.183,0,12.268    c0,6.085,4.934,11.019,11.017,11.019c0.321,0,0.64-0.014,0.953-0.041c-0.021-0.289-0.035-0.582-0.035-0.877    c0-0.326,0.015-0.65,0.042-0.968c-0.316,0.032-0.636,0.05-0.961,0.05c-5.069,0-9.181-4.111-9.181-9.182s4.112-9.182,9.181-9.182    c5.071,0,9.182,4.111,9.182,9.182c0,4.074-2.653,7.528-6.324,8.729c-0.069,0.447-0.104,0.905-0.104,1.372    c0,0.19,0.006,0.379,0.018,0.566C18.533,21.706,22.036,17.396,22.036,12.268"/>
		<path class="st5" d="M69.783,12.268c0,6.085-4.934,11.019-11.019,11.019c-5.759,0-10.486-4.419-10.975-10.05    c0.655,0.068,1.289,0.204,1.896,0.403c0.66,4.42,4.476,7.811,9.08,7.811c5.07,0,9.181-4.111,9.181-9.182s-4.111-9.182-9.181-9.182    c-4.88,0-8.872,3.809-9.166,8.616c-0.588-0.153-1.194-0.258-1.818-0.311c0.448-5.675,5.195-10.142,10.984-10.142    C64.848,1.249,69.783,6.183,69.783,12.268"/>
		<path class="st1" d="M46.828,13.186c4.604,0,8.418,3.39,9.081,7.811c0.606,0.199,1.241,0.335,1.896,0.403    c-0.491-5.631-5.218-10.05-10.976-10.05c-0.321,0-0.64,0.014-0.953,0.041c0.024,0.289,0.035,0.582,0.035,0.877    c0,0.326-0.014,0.65-0.042,0.968C46.183,13.203,46.503,13.186,46.828,13.186 M55.992,22.935c-0.293,4.807-4.284,8.616-9.164,8.616    c-5.071,0-9.182-4.112-9.182-9.182c0-4.074,2.653-7.528,6.327-8.729c0.065-0.447,0.1-0.905,0.1-1.372    c0-0.19-0.006-0.379-0.018-0.566c-4.743,1.229-8.246,5.539-8.246,10.667c0,6.085,4.933,11.017,11.019,11.017    c5.789,0,10.536-4.465,10.984-10.14C57.19,23.193,56.58,23.088,55.992,22.935"/>
		<path class="st6" d="M21.995,13.236c0.028-0.32,0.041-0.642,0.041-0.968c0-0.295-0.01-0.588-0.035-0.877    c0.315-0.027,0.632-0.041,0.953-0.041c5.761,0,10.486,4.419,10.976,10.05c-0.655-0.068-1.289-0.204-1.894-0.403    c-0.664-4.42-4.477-7.811-9.082-7.811C22.63,13.186,22.309,13.203,21.995,13.236 M33.938,23.246    c-0.447,5.675-5.193,10.14-10.984,10.14c-6.085,0-11.017-4.933-11.017-11.017c0-5.128,3.503-9.438,8.246-10.667    c0.013,0.187,0.018,0.376,0.018,0.566c0,0.466-0.036,0.925-0.101,1.372c-3.674,1.201-6.325,4.655-6.325,8.729    c0,5.07,4.11,9.181,9.18,9.181c4.881,0,8.873-3.808,9.164-8.615C32.708,23.088,33.316,23.193,33.938,23.246"/>
		<path d="M34.891,1.25c-5.789,0-10.537,4.465-10.984,10.14c0.623,0.054,1.23,0.158,1.82,0.311c0.293-4.807,4.283-8.615,9.164-8.615    c5.071,0,9.181,4.111,9.181,9.181c0,4.074-2.652,7.528-6.325,8.729c-0.067,0.447-0.101,0.905-0.101,1.372    c0,0.19,0.004,0.379,0.017,0.566c4.744-1.229,8.247-5.539,8.247-10.667C45.91,6.183,40.976,1.25,34.891,1.25 M34.891,21.45    c-4.605,0-8.418-3.39-9.08-7.811c-0.607-0.198-1.242-0.335-1.897-0.403c0.491,5.631,5.218,10.05,10.976,10.05    c0.321,0,0.638-0.014,0.953-0.041c-0.023-0.289-0.035-0.582-0.035-0.877c0-0.326,0.014-0.649,0.042-0.968    C35.536,21.433,35.215,21.45,34.891,21.45"/>
	</g>
	<rect x="76.906" y="0.042" width="0.963" height="34.551"/>
	<rect x="207.029" y="0.042" width="0.963" height="34.551"/>
</g>
<g>
	<path d="M188.652,42.864c-0.586,0-1.017,0.308-1.274,0.954v-0.882h-1.221v4.94h1.303v-2.312c0-0.945,0.442-1.387,1.12-1.387   c0.185,0,0.36,0.031,0.524,0.092l0.185-1.283C189.084,42.905,188.868,42.864,188.652,42.864 M182.433,43.952   c0.575,0,0.955,0.349,1.038,0.926h-2.116C181.477,44.301,181.878,43.952,182.433,43.952 M184.763,45.32   c0-1.481-0.966-2.486-2.351-2.486c-1.397,0-2.373,1.047-2.373,2.577c0,1.604,1.099,2.579,2.681,2.579   c0.719,0,1.396-0.175,1.889-0.503l-0.36-1.088c-0.432,0.247-0.964,0.401-1.468,0.401c-0.729,0-1.253-0.329-1.418-0.977h3.358   C184.753,45.678,184.763,45.514,184.763,45.32 M178.635,42.864c-0.586,0-1.017,0.308-1.274,0.954v-0.882h-1.221v4.94h1.304v-2.312   c0-0.945,0.442-1.387,1.12-1.387c0.185,0,0.36,0.031,0.524,0.092l0.185-1.283C179.067,42.905,178.851,42.864,178.635,42.864    M173.176,42.936v2.661c0,0.74-0.39,1.161-1.027,1.161s-0.957-0.39-0.957-1.192v-2.63h-1.303v2.908   c0,1.356,0.668,2.146,1.818,2.146c0.658,0,1.233-0.288,1.551-0.882v0.769h1.221v-4.94H173.176z M164.781,47.61   c0.452,0.226,1.047,0.37,1.714,0.37c1.316,0,2.147-0.595,2.147-1.612c0-1.799-2.455-1.286-2.455-2.015   c0-0.216,0.205-0.36,0.658-0.36c0.423,0,0.875,0.113,1.264,0.308l0.339-1.119c-0.432-0.216-1.026-0.349-1.644-0.349   c-1.202,0-1.92,0.545-1.92,1.53c0,1.84,2.455,1.378,2.455,2.046c0,0.236-0.318,0.421-0.844,0.421c-0.493,0-0.986-0.134-1.406-0.38   L164.781,47.61z M161.716,42.834c-0.647,0-1.223,0.277-1.542,0.872v-0.769h-1.221v4.94h1.303v-2.651   c0-0.74,0.392-1.161,1.029-1.161c0.637,0,0.955,0.38,0.955,1.192v2.62h1.303v-2.897C163.544,43.623,162.877,42.834,161.716,42.834    M155.774,47.877h1.396v-6.851h-1.396V47.877z M149.857,40.666v5.764c0,1.057,0.432,1.499,1.375,1.499   c0.36,0,0.678-0.051,0.873-0.134l-0.134-1.129c-0.092,0.041-0.216,0.072-0.339,0.072c-0.318,0-0.473-0.164-0.473-0.545v-5.527   H149.857z M145.746,46.758c-0.729,0-1.223-0.555-1.223-1.346c0-0.803,0.493-1.347,1.223-1.347c0.709,0,1.152,0.503,1.152,1.347   C146.898,46.255,146.455,46.758,145.746,46.758 M145.427,47.99c0.616,0,1.151-0.247,1.553-0.8v0.687h1.221v-4.94h-1.221v0.697   c-0.402-0.554-0.936-0.8-1.553-0.8c-1.305,0-2.208,1.047-2.208,2.579C143.22,46.933,144.122,47.99,145.427,47.99 M140.565,47.877   h1.304v-4.94h-1.304V47.877z M141.212,42.123c0.482,0,0.8-0.308,0.8-0.75c0-0.451-0.318-0.759-0.8-0.759   c-0.462,0-0.791,0.308-0.791,0.759C140.421,41.815,140.75,42.123,141.212,42.123 M137.723,47.99c0.565,0,1.13-0.154,1.582-0.452   l-0.36-1.16c-0.329,0.247-0.75,0.38-1.14,0.38c-0.76,0-1.264-0.493-1.264-1.346c0-0.854,0.503-1.347,1.264-1.347   c0.401,0,0.801,0.134,1.13,0.39l0.37-1.18c-0.452-0.288-1.017-0.442-1.582-0.442c-1.458,0-2.485,1.006-2.485,2.579   C135.238,46.964,136.265,47.99,137.723,47.99 M132.604,47.877h1.303v-4.94h-1.303V47.877z M133.251,42.123   c0.482,0,0.8-0.308,0.8-0.75c0-0.451-0.318-0.759-0.8-0.759c-0.462,0-0.791,0.308-0.791,0.759   C132.46,41.815,132.789,42.123,133.251,42.123 M130.168,42.423c0-0.443,0.205-0.649,0.575-0.649c0.175,0,0.37,0.041,0.545,0.103   l0.205-1.108c-0.277-0.123-0.637-0.185-0.986-0.185c-1.067,0-1.643,0.625-1.643,1.704v0.649h-0.606v1.201h0.606v3.74h1.303v-3.74   h1.171v-1.201h-1.171V42.423z M126.218,42.423c0-0.443,0.205-0.649,0.575-0.649c0.175,0,0.37,0.041,0.545,0.103l0.205-1.108   c-0.277-0.123-0.637-0.185-0.986-0.185c-1.068,0-1.643,0.625-1.643,1.704v0.649h-0.606v1.201h0.606v3.74h1.304v-3.74h1.171v-1.201   h-1.171V42.423z M119.799,46.696c-1.223,0-2.086-0.914-2.086-2.241c0-1.336,0.863-2.25,2.086-2.25c1.234,0,2.097,0.914,2.097,2.25   C121.896,45.782,121.033,46.696,119.799,46.696 M119.799,48c2.077,0,3.493-1.437,3.493-3.544c0-2.106-1.417-3.553-3.493-3.553   c-2.065,0-3.482,1.447-3.482,3.553C116.317,46.563,117.734,48,119.799,48 M110.42,43.952c0.575,0,0.955,0.349,1.038,0.926h-2.116   C109.465,44.301,109.865,43.952,110.42,43.952 M112.751,45.32c0-1.481-0.964-2.486-2.351-2.486c-1.397,0-2.373,1.047-2.373,2.577   c0,1.604,1.099,2.579,2.681,2.579c0.719,0,1.397-0.175,1.889-0.503l-0.36-1.088c-0.43,0.247-0.964,0.401-1.468,0.401   c-0.729,0-1.253-0.329-1.418-0.977h3.358C112.741,45.678,112.751,45.514,112.751,45.32 M104.924,42.834   c-0.596,0-1.131,0.236-1.46,0.738v-2.906h-1.304v7.211h1.304v-2.651c0-0.74,0.39-1.161,1.029-1.161c0.637,0,0.955,0.38,0.955,1.192   v2.62h1.303v-2.897C106.751,43.623,106.085,42.834,104.924,42.834 M100.937,41.025h-5.321v1.304h1.962v5.548h1.396v-5.548h1.962   V41.025z"/>
</g>
</svg>
