<?xml version='1.0' encoding='UTF-8'?>
<svg xmlns="http://www.w3.org/2000/svg" width="891" height="200" viewBox="0 0 294 66" fill="none">
<g clip-path="url(#clip0_1056_26194)">
<path d="M105.891 43.7156H100.974L98.2922 37.4165H85.7897L83.0594 43.7156H78.3018L89.9382 17.4268H94.2462L105.891 43.7156ZM92.0192 22.9064L87.4826 33.3502H96.5926L92.0192 22.9064Z" fill="#E41E2B"/>
<path d="M112.947 43.7155H108.375V24.0281H112.947V28.4608C114.191 25.5129 116.496 23.5042 120.007 23.6533V28.4246H119.744C115.741 28.4246 112.947 31.0018 112.947 36.2178V43.7155Z" fill="#E41E2B"/>
<path d="M137.248 43.716V40.4312C135.774 42.4871 133.696 44.1295 130.447 44.1295C125.764 44.1295 121.188 40.4312 121.188 33.8719C121.188 27.3125 125.687 23.6176 130.448 23.6176C133.737 23.6176 135.813 25.2591 137.249 27.0851V16.4922H141.821V43.716H137.248ZM131.542 27.5348C128.409 27.5348 125.8 29.9234 125.8 33.8735C125.8 37.7478 128.445 40.2114 131.542 40.2114C134.601 40.2114 137.324 37.7108 137.324 33.8735C137.324 30.0363 134.603 27.5348 131.543 27.5348H131.542Z" fill="#E41E2B"/>
<path d="M155.36 40.471C157.59 40.471 159.176 39.6498 160.766 38.122L163.442 40.471C161.559 42.7089 158.945 44.1676 155.283 44.1676C149.502 44.1676 145.044 40.0263 145.044 33.91C145.044 28.2375 149.09 23.6152 154.791 23.6152C161.143 23.6152 164.348 28.5382 164.348 34.2435C164.348 34.6537 164.32 35.0284 164.279 35.4748H149.613C150.145 38.6838 152.412 40.471 155.36 40.471ZM159.819 32.495C159.516 29.5808 157.777 27.3068 154.755 27.3068C151.962 27.3068 149.996 29.4351 149.582 32.495H159.819Z" fill="#E41E2B"/>
<path d="M172.134 43.7162H167.555V24.0288H172.134V27.0827C173.414 25.2298 175.265 23.6152 178.363 23.6152C182.862 23.6152 185.47 26.601 185.47 31.1887V43.7162H180.894V32.5262C180.894 29.473 179.344 27.7212 176.628 27.7212C173.983 27.7212 172.137 29.5463 172.137 32.6003L172.134 43.7162Z" fill="#E41E2B"/>
<path d="M194.779 37.5655C194.779 39.3165 195.687 40.0257 197.231 40.0257C198.216 40.0284 199.187 39.8 200.065 39.3595V43.0434C198.935 43.681 197.652 44.0541 195.947 44.0541C192.58 44.0541 190.203 42.6004 190.203 38.273V27.9033H187.674V24.029H190.203V18.6201H194.779V24.029H200.142V27.9033H194.779V37.5655Z" fill="#E41E2B"/>
<path d="M215.881 44.1683C208.246 44.1683 202.617 38.2381 202.617 30.7009C202.617 23.2428 208.21 17.166 215.99 17.166C220.791 17.166 223.661 18.8455 226.302 21.3073L224.267 23.4677C222.036 21.3831 219.546 19.8881 215.956 19.8881C210.102 19.8881 205.717 24.5458 205.717 30.6251C205.717 36.7044 210.138 41.4445 215.956 41.4445C219.586 41.4445 221.961 40.0649 224.497 37.6763L226.459 39.5756C223.701 42.3381 220.679 44.1683 215.881 44.1683Z" fill="#B2B2B2"/>
<path d="M238.462 44.1681C232.604 44.1681 228.339 39.6201 228.339 34.1362C228.339 28.6524 232.642 24.0293 238.539 24.0293C244.391 24.0293 248.7 28.5774 248.7 34.0604C248.7 39.5434 244.355 44.1681 238.462 44.1681ZM238.462 26.5653C234.227 26.5653 231.316 29.882 231.316 34.0612C231.316 38.2404 234.422 41.5934 238.539 41.5934C242.765 41.5934 245.713 38.2724 245.713 34.137C245.713 29.9233 242.58 26.5653 238.462 26.5653Z" fill="#B2B2B2"/>
<path d="M268.15 43.716V39.8366C266.562 42.157 264.259 44.132 260.671 44.132C255.983 44.132 251.342 40.4717 251.342 34.095C251.342 27.7572 255.983 24.0294 260.671 24.0294C264.297 24.0294 266.639 25.9666 268.15 28.1311V16.4922H271.063V43.716H268.15ZM261.198 26.6008C257.422 26.6008 254.326 29.3583 254.326 34.0597C254.326 38.6457 257.498 41.5556 261.198 41.5556C264.828 41.5556 268.267 38.5707 268.267 34.0597C268.267 29.5806 264.828 26.6008 261.198 26.6008Z" fill="#B2B2B2"/>
<path d="M284.648 41.6677C287.33 41.6677 289.222 40.5854 290.811 38.9472L292.619 40.5475C290.656 42.7095 288.276 44.1691 284.573 44.1691C279.207 44.1691 274.825 40.0986 274.825 34.0959C274.825 28.5026 278.792 24.0303 284.193 24.0303C289.978 24.0303 293.305 28.5784 293.305 34.245C293.309 34.5437 293.296 34.8423 293.265 35.1394H277.776C278.187 39.317 281.213 41.6677 284.648 41.6677ZM290.35 33.0153C290.055 29.5099 288.013 26.4509 284.121 26.4509C280.721 26.4509 278.149 29.2463 277.774 33.0153H290.35Z" fill="#B2B2B2"/>
<path d="M25.3281 1.07227C23.5646 1.50693 21.8404 2.08413 20.1729 2.79802L21.2112 5.15629C22.7467 4.50004 24.3339 3.96849 25.9569 3.56697L25.3281 1.07227Z" fill="#B2B2B2"/>
<path d="M36.1447 0.241838C35.1848 0.157613 34.2121 0.117188 33.2437 0.117188C32.4178 0.142455 31.544 0.146673 30.7002 0.208999L30.9016 2.77362C31.6754 2.71382 32.4562 2.68181 33.23 2.68181C34.1225 2.67339 35.0278 2.72225 35.9143 2.79805L36.1447 0.241838Z" fill="#E41E2B"/>
<path d="M2.90949 32.7021V32.6221H0.303711V32.7021C0.305347 34.4666 0.451729 36.2282 0.741421 37.9694L3.30795 37.5483C3.04232 35.9462 2.90906 34.3255 2.90949 32.7021Z" fill="#B2B2B2"/>
<path d="M2.07617 43.1795C2.66022 44.8786 3.38982 46.5256 4.25704 48.1024L6.54285 46.8837C5.74897 45.4278 5.0775 43.91 4.5352 42.3457L2.07617 43.1795Z" fill="#B2B2B2"/>
<path d="M9.28091 51.0322L7.22461 52.6013C8.33712 54.021 9.56593 55.3481 10.8986 56.5691L12.6648 54.6867C11.4387 53.5608 10.307 52.3386 9.28091 51.0322Z" fill="#E41E2B"/>
<path d="M7.35618 12.5498C6.23082 13.9588 5.22676 15.4581 4.35449 17.0322L6.63775 18.2636C7.44343 16.8158 8.36772 15.4356 9.40138 14.1366L7.35618 12.5498Z" fill="#B2B2B2"/>
<path d="M63.2665 27.8349L65.8322 27.4205C65.5392 25.6496 65.0977 23.9058 64.5122 22.207L62.0498 23.0324C62.5897 24.5972 62.9967 26.2035 63.2665 27.8349Z" fill="#B2B2B2"/>
<path d="M15.3767 5.33398C13.8515 6.31183 12.4094 7.41035 11.0645 8.61873L12.8187 10.5146C14.0587 9.4032 15.3875 8.39233 16.7922 7.49182L15.3767 5.33398Z" fill="#B2B2B2"/>
<path d="M62.3427 17.2822C61.4828 15.7017 60.4916 14.1943 59.3794 12.7754L57.3223 14.3428C58.3476 15.6511 59.2609 17.0414 60.0526 18.4993L62.3427 17.2822Z" fill="#B2B2B2"/>
<path d="M55.7105 8.80883C54.3814 7.58376 52.9497 6.47196 51.4306 5.48535L49.998 7.62801C51.3962 8.53785 52.7155 9.56046 53.9426 10.6854L55.7105 8.80883Z" fill="#B2B2B2"/>
<path d="M3.35227 27.5806C3.63498 25.9513 4.05364 24.3478 4.60397 22.7866L2.14665 21.9443C1.55017 23.6417 1.09586 25.3845 0.7883 27.1553L0.769531 27.2648L3.33436 27.6859L3.35227 27.5806Z" fill="#B2B2B2"/>
<path d="M46.6517 2.90523C44.9903 2.17948 43.2705 1.59152 41.5102 1.14746L40.8643 3.63713C42.4853 4.04487 44.0688 4.58637 45.598 5.25592L46.6517 2.90523Z" fill="#B2B2B2"/>
<path d="M45.4062 60.1556L46.4463 62.5139C48.1125 61.7975 49.7163 60.9474 51.2415 59.972L49.8226 57.8125C48.4185 58.7126 46.9414 59.4963 45.4062 60.1556Z" fill="#B2B2B2"/>
<path d="M15.1875 59.8813C16.7082 60.8665 18.3082 61.7268 19.9716 62.4535L21.0142 60.1028C19.4847 59.4329 18.0131 58.6408 16.6141 57.7344L15.1875 59.8813Z" fill="#B2B2B2"/>
<path d="M59.9551 47.0126L62.2434 48.2491C63.1118 46.6738 63.8467 45.0303 64.4405 43.3354L61.9832 42.4932C61.4361 44.0529 60.7577 45.5647 59.9551 47.0126Z" fill="#B2B2B2"/>
<path d="M63.2227 37.695L65.7892 38.1288C66.0931 36.3605 66.2509 34.5707 66.261 32.7772L63.6612 32.7637C63.6504 34.4165 63.5038 36.0657 63.2227 37.695Z" fill="#B2B2B2"/>
<path d="M53.791 54.7805L55.5444 56.678C56.8859 55.4669 58.1244 54.1491 59.2474 52.738L57.1997 51.1504C56.1656 52.4501 55.0256 53.6642 53.791 54.7805Z" fill="#E41E2B"/>
<path d="M25.7569 61.7109L25.1152 64.1981C25.9531 64.4128 26.8217 64.5914 27.6903 64.7464C28.6118 64.8997 29.5486 65.0193 30.4787 65.0976L30.7039 62.5372C29.8507 62.4681 28.9804 62.357 28.1306 62.2104C27.3294 62.0756 26.5316 61.9047 25.7569 61.7109Z" fill="#B2B2B2"/>
<path d="M35.7178 62.5555L35.9234 65.1168C37.737 64.9757 39.5353 64.6829 41.2988 64.2417L40.6682 61.7588C39.0431 62.1583 37.3873 62.4248 35.7178 62.5555Z" fill="#B2B2B2"/>
</g>
<defs>
<clipPath id="clip0_1056_26194">
<rect width="293" height="65" fill="white" transform="translate(0.304688 0.117188)"/>
</clipPath>
</defs>
</svg>
