<?xml version='1.0' encoding='UTF-8'?>
<svg xmlns="http://www.w3.org/2000/svg" xmlns:xlink="http://www.w3.org/1999/xlink" id="Layer_1" data-name="Layer 1" viewBox="0 0 398.19 116.81" width="682" height="200">
  <defs>
    <style>.cls-1{fill:#fff;}.cls-2{fill:url(#linear-gradient);}.cls-3{fill:url(#linear-gradient-2);}.cls-4{fill:url(#linear-gradient-3);}.cls-5{fill:url(#linear-gradient-4);}.cls-6{fill:url(#linear-gradient-5);}.cls-7{fill:url(#linear-gradient-6);}.cls-8{fill:#b9db01;}.cls-9{fill:#e95617;}.cls-10{fill:#434867;}.cls-11{fill:#ffd300;}.cls-12{fill:#bf559b;}.cls-13{fill:#df005b;}.cls-14{fill:none;}</style>
    <linearGradient id="linear-gradient" x1="263.02" y1="-172.64" x2="263.64" y2="-81.59" gradientTransform="translate(321.29 -68.99) rotate(180)" gradientUnits="userSpaceOnUse">
      <stop offset="0" stop-color="#ffb607"/>
      <stop offset="1" stop-color="#e46054"/>
    </linearGradient>
    <linearGradient id="linear-gradient-2" x1="221.42" y1="-139.24" x2="303.82" y2="-139.24" gradientTransform="translate(321.29 -68.99) rotate(180)" gradientUnits="userSpaceOnUse">
      <stop offset="0" stop-color="#b9db01"/>
      <stop offset="1" stop-color="#bf559b"/>
    </linearGradient>
    <linearGradient id="linear-gradient-3" x1="214.61" y1="-140.89" x2="285.22" y2="-101.87" gradientTransform="translate(321.29 -68.99) rotate(180)" gradientUnits="userSpaceOnUse">
      <stop offset="0" stop-color="#e04264"/>
      <stop offset="1" stop-color="#e46054"/>
    </linearGradient>
    <linearGradient id="linear-gradient-4" x1="206.82" y1="-139.24" x2="289.23" y2="-139.24" gradientTransform="translate(321.29 -68.99) rotate(180)" gradientUnits="userSpaceOnUse">
      <stop offset="0" stop-color="#e04264"/>
      <stop offset="1" stop-color="#ffd300"/>
    </linearGradient>
    <linearGradient id="linear-gradient-5" x1="221.42" y1="-116.38" x2="303.82" y2="-116.38" gradientTransform="translate(321.29 -68.99) rotate(180)" gradientUnits="userSpaceOnUse">
      <stop offset="0" stop-color="#434867"/>
      <stop offset="1" stop-color="#bf559b"/>
    </linearGradient>
    <linearGradient id="linear-gradient-6" x1="248.01" y1="-84.64" x2="245.88" y2="-172.54" gradientTransform="translate(321.29 -68.99) rotate(180)" gradientUnits="userSpaceOnUse">
      <stop offset="0" stop-color="#434867"/>
      <stop offset="1" stop-color="#b9db01"/>
    </linearGradient>
  </defs>
  <path class="cls-1" d="M153.56,115.25l2.57-9.88h1.42l-3,11.27h-2.05l-2.33-10.06-2.33,10.06h-2l-3-11.27h1.42l2.57,9.88,2.34-9.88h2Z" transform="translate(-0.9)"/>
  <path class="cls-1" d="M159.16,105.37h6.63v1.31h-5.17v3.53h4.8v1.3h-4.8v3.83h5.19v1.3h-6.65Z" transform="translate(-0.9)"/>
  <path class="cls-1" d="M171.6,116.64V105.37H176c1.77,0,2.65.8,2.65,2.29V109a1.77,1.77,0,0,1-1.28,1.88,1.89,1.89,0,0,1,1.66,2v1.35c0,1.57-1.1,2.42-2.8,2.42Zm5.55-9c0-.73-.41-1.06-1.29-1.06h-2.81v3.65h2.58c1.1,0,1.52-.51,1.52-1.32Zm.37,5.23c0-.9-.51-1.39-1.62-1.39h-2.85v3.86H176c1,0,1.54-.44,1.54-1.29Z" transform="translate(-0.9)"/>
  <path class="cls-1" d="M185.3,112.56h-2.75v4.08h-1.46V105.37h4.3c2.42,0,3.26,1,3.26,2.78v1.62a2.37,2.37,0,0,1-1.79,2.62l2.92,4.25h-1.67Zm0-5.88h-2.79v4.6h2.79c1.38,0,1.86-.39,1.86-1.49v-1.63C187.2,107.05,186.72,106.68,185.34,106.68Z" transform="translate(-0.9)"/>
  <path class="cls-1" d="M193.16,116.64H191.7V105.37h1.46Z" transform="translate(-0.9)"/>
  <path class="cls-1" d="M197.33,107.05v9.59H196V105.37h2l4.91,9.65v-9.65h1.39v11.27h-2Z" transform="translate(-0.9)"/>
  <path class="cls-1" d="M208.15,113.41c0,1.44.42,2.08,2.35,2.08a11.36,11.36,0,0,0,2.11-.2v-3.83H214v4.86a13.24,13.24,0,0,1-3.56.49c-2.88,0-3.76-1.24-3.76-3.32v-4.95c0-2.29,1.13-3.34,3.94-3.34a14.46,14.46,0,0,1,3.13.36l-.17,1.25a18.63,18.63,0,0,0-3-.29c-1.86,0-2.41.56-2.41,2.08Z" transform="translate(-0.9)"/>
  <path class="cls-1" d="M221.56,116.64h-1.45V105.37h1.45Z" transform="translate(-0.9)"/>
  <path class="cls-1" d="M225.74,107.05v9.59h-1.39V105.37h2l4.91,9.65v-9.65h1.38v11.27h-2Z" transform="translate(-0.9)"/>
  <path class="cls-1" d="M237.62,106.68h-3.37v-1.31h8.19v1.31h-3.36v10h-1.46Z" transform="translate(-0.9)"/>
  <path class="cls-1" d="M244.05,105.37h6.63v1.31H245.5v3.53h4.81v1.3H245.5v3.83h5.2v1.3h-6.65Z" transform="translate(-0.9)"/>
  <path class="cls-1" d="M254.47,115.34h4.89v1.3H253V105.37h1.45Z" transform="translate(-0.9)"/>
  <path class="cls-1" d="M262.76,115.34h4.89v1.3h-6.34V105.37h1.45Z" transform="translate(-0.9)"/>
  <path class="cls-1" d="M271.14,116.64h-1.46V105.37h1.46Z" transform="translate(-0.9)"/>
  <path class="cls-1" d="M275.13,113.41c0,1.44.42,2.08,2.35,2.08a11.46,11.46,0,0,0,2.12-.2v-3.83H281v4.86a13.32,13.32,0,0,1-3.57.49c-2.88,0-3.75-1.24-3.75-3.32v-4.95c0-2.29,1.13-3.34,3.94-3.34a14.53,14.53,0,0,1,3.13.36l-.17,1.25a18.83,18.83,0,0,0-3-.29c-1.86,0-2.42.56-2.42,2.08Z" transform="translate(-0.9)"/>
  <path class="cls-1" d="M283.54,105.37h6.63v1.31H285v3.53h4.81v1.3H285v3.83h5.2v1.3h-6.65Z" transform="translate(-0.9)"/>
  <path class="cls-1" d="M293.89,107.05v9.59h-1.38V105.37h2l4.91,9.65v-9.65h1.39v11.27h-2Z" transform="translate(-0.9)"/>
  <path class="cls-1" d="M304.71,113.41c0,1.57.61,2.08,2.45,2.08a17.57,17.57,0,0,0,2.64-.24l.15,1.25a14.12,14.12,0,0,1-2.84.31c-2.76,0-3.86-1.19-3.86-3.32v-5c0-2.13,1.1-3.32,3.86-3.32a14.12,14.12,0,0,1,2.84.31l-.15,1.25a17.57,17.57,0,0,0-2.64-.24c-1.84,0-2.45.51-2.45,2.08Z" transform="translate(-0.9)"/>
  <path class="cls-1" d="M312.07,105.37h6.63v1.31h-5.18v3.53h4.81v1.3h-4.81v3.83h5.19v1.3h-6.64Z" transform="translate(-0.9)"/>
  <path class="cls-1" d="M326.77,106.68H323.4v-1.31h8.19v1.31h-3.37v10h-1.45Z" transform="translate(-0.9)"/>
  <path class="cls-1" d="M341.1,113.39c0,1.88-1.17,3.42-4.08,3.42s-4.07-1.54-4.07-3.42v-4.77c0-1.88,1.16-3.42,4.07-3.42s4.08,1.54,4.08,3.42Zm-6.7,0c0,1.38.85,2.16,2.62,2.16s2.62-.78,2.62-2.16v-4.71c0-1.38-.84-2.16-2.62-2.16s-2.62.78-2.62,2.16Z" transform="translate(-0.9)"/>
  <path class="cls-1" d="M344.76,113.41c0,1.44.42,2.08,2.35,2.08a11.36,11.36,0,0,0,2.11-.2v-3.83h1.4v4.86a13.24,13.24,0,0,1-3.56.49c-2.88,0-3.76-1.24-3.76-3.32v-4.95c0-2.29,1.14-3.34,3.94-3.34a14.46,14.46,0,0,1,3.13.36l-.17,1.25a18.63,18.63,0,0,0-3-.29c-1.86,0-2.41.56-2.41,2.08Z" transform="translate(-0.9)"/>
  <path class="cls-1" d="M353.16,105.37h6.63v1.31h-5.17v3.53h4.8v1.3h-4.8v3.83h5.19v1.3h-6.65Z" transform="translate(-0.9)"/>
  <path class="cls-1" d="M364.4,106.68H361v-1.31h8.19v1.31h-3.37v10H364.4Z" transform="translate(-0.9)"/>
  <path class="cls-1" d="M377.27,116.64v-5.11h-5v5.11h-1.45V105.37h1.45v4.86h5v-4.86h1.46v11.27Z" transform="translate(-0.9)"/>
  <path class="cls-1" d="M381.44,105.37h6.63v1.31h-5.18v3.53h4.81v1.3h-4.81v3.83h5.19v1.3h-6.64Z" transform="translate(-0.9)"/>
  <path class="cls-1" d="M394.62,112.56h-2.76v4.08H390.4V105.37h4.3c2.42,0,3.27,1,3.27,2.78v1.62a2.38,2.38,0,0,1-1.8,2.62l2.93,4.25h-1.68Zm0-5.88h-2.79v4.6h2.79c1.39,0,1.86-.39,1.86-1.49v-1.63C396.51,107.05,396,106.68,394.65,106.68Z" transform="translate(-0.9)"/>
  <path class="cls-2" d="M51.35,106.39c5.11-2.64,9.42-8.81,12.47-17.83a94.44,94.44,0,0,0,4.39-29.74,94.42,94.42,0,0,0-4.39-29.73c-3-9-7.36-15.2-12.47-17.83L48,16.11c3.07,1.58,9.47,8.88,11.75,15.63a87.63,87.63,0,0,1,4,27.08,87.65,87.65,0,0,1-4,27.09c-2.28,6.74-8.68,14-11.75,15.63Z" transform="translate(-0.9)"/>
  <path class="cls-3" d="M99.85,95.26c.27-5.74-2.91-12.56-9.21-19.71A94.6,94.6,0,0,0,67.09,56.87,94.73,94.73,0,0,0,39.14,45.81c-9.34-1.87-16.83-1.22-21.68,1.88L20,53c2.91-1.86,12.43-3.76,19.42-2.36,7.83,1.57,16.86,5.17,25.43,10.11a87.77,87.77,0,0,1,21.48,17c4.7,5.35,7.82,14.54,7.66,18Z" transform="translate(-0.9)"/>
  <path class="cls-4" d="M32.07,22.38C31.81,28.13,35,35,41.29,42.1A94.54,94.54,0,0,0,64.83,60.78a94.94,94.94,0,0,0,28,11.06c9.34,1.87,16.84,1.22,21.68-1.88l-2.52-5.35C109,66.48,99.51,68.38,92.52,67A87.06,87.06,0,0,1,67.1,56.86a87.13,87.13,0,0,1-21.48-17c-4.7-5.35-7.83-14.54-7.66-18Z" transform="translate(-0.9)"/>
  <path class="cls-5" d="M114.46,47.69c-4.84-3.1-12.34-3.75-21.68-1.88A94.84,94.84,0,0,0,64.83,56.87,94.78,94.78,0,0,0,41.28,75.55c-6.29,7.15-9.47,14-9.21,19.71l5.89.48c-.17-3.45,3-12.64,7.66-18,5.27-6,12.9-12,21.48-17s17.6-8.54,25.42-10.11c7-1.4,16.51.5,19.42,2.36Z" transform="translate(-0.9)"/>
  <path class="cls-6" d="M17.46,70c4.84,3.1,12.34,3.75,21.68,1.88a94.73,94.73,0,0,0,28-11.06A94.6,94.6,0,0,0,90.64,42.1c6.3-7.15,9.48-14,9.21-19.72L94,21.9c.16,3.46-3,12.65-7.66,18a87.51,87.51,0,0,1-21.48,17A87.06,87.06,0,0,1,39.39,67c-7,1.4-16.5-.5-19.41-2.37Z" transform="translate(-0.9)"/>
  <path class="cls-7" d="M80.57,11.26c-5.11,2.63-9.42,8.8-12.47,17.83a94.73,94.73,0,0,0-4.39,29.74A94.71,94.71,0,0,0,68.1,88.56c3.05,9,7.36,15.19,12.47,17.83l3.36-4.85c-3.06-1.58-9.47-8.89-11.74-15.63a87.32,87.32,0,0,1-4-27.08,87.34,87.34,0,0,1,4-27.09c2.27-6.75,8.68-14,11.74-15.63Z" transform="translate(-0.9)"/>
  <path class="cls-8" d="M87.58,112.24a8,8,0,1,1,10.91,2.93A8,8,0,0,1,87.58,112.24Z" transform="translate(-0.9)"/>
  <path class="cls-9" d="M30.51,13.4a8,8,0,1,1,10.91,2.92A8,8,0,0,1,30.51,13.4Z" transform="translate(-0.9)"/>
  <path class="cls-10" d="M101.41,13.4A8,8,0,1,1,98.49,2.48,8,8,0,0,1,101.41,13.4Z" transform="translate(-0.9)"/>
  <path class="cls-11" d="M44.35,112.24a8,8,0,1,1-2.93-10.91A8,8,0,0,1,44.35,112.24Z" transform="translate(-0.9)"/>
  <path class="cls-12" d="M8.89,50.84a8,8,0,1,1-8,8A8,8,0,0,1,8.89,50.84Z" transform="translate(-0.9)"/>
  <path class="cls-13" d="M123,50.84a8,8,0,1,1-8,8A8,8,0,0,1,123,50.84Z" transform="translate(-0.9)"/>
  <path class="cls-14" d="M252.71,30.6V20.26c0-5.93-3.3-8.68-10.47-8.68H219.36V41.34h20.95C249.27,41.34,252.71,37.21,252.71,30.6Z" transform="translate(-0.9)"/>
  <path class="cls-14" d="M242.52,51.55H219.36V83H243.2c8.41,0,12.55-3.58,12.55-10.47V62.85C255.75,55.54,251.61,51.55,242.52,51.55Z" transform="translate(-0.9)"/>
  <polygon class="cls-1" points="153.81 82.56 153.81 51.41 195.22 51.41 195.22 40.8 153.81 40.8 153.81 11.99 195.22 11.99 195.22 1.38 141.53 1.38 141.53 93.17 195.22 93.17 195.22 82.56 153.81 82.56"/>
  <path class="cls-1" d="M254.09,45.9c8.13-3,10.48-8.27,10.48-15.3V20c0-12.13-7.17-18.6-21.64-18.6H207.51V93.17h37.35c13.78,0,22.74-6.89,22.74-19.71v-11C267.6,52.65,262.08,47.28,254.09,45.9ZM219.36,11.58h22.88c7.17,0,10.47,2.75,10.47,8.68V30.6c0,6.61-3.44,10.74-12.4,10.74H219.36ZM255.75,72.5c0,6.89-4.14,10.47-12.55,10.47H219.36V51.55h23.16c9.09,0,13.23,4,13.23,11.3Z" transform="translate(-0.9)"/>
  <path class="cls-1" d="M309.09,10.75a141,141,0,0,1,21.5,1.93l1.24-10.2A117.53,117.53,0,0,0,308.68,0c-22.47,0-31.43,9.65-31.43,27V67.54c0,17.36,9,27,31.43,27a117.53,117.53,0,0,0,23.15-2.48l-1.24-10.21a139.81,139.81,0,0,1-21.5,1.94c-15,0-20-4.14-20-17V27.7C289.1,14.89,294.07,10.75,309.09,10.75Z" transform="translate(-0.9)"/>
  <path class="cls-1" d="M387.21,51V82.15A91.34,91.34,0,0,1,370,83.8c-15.71,0-19.16-5.23-19.16-17V27.7c0-12.4,4.55-16.95,19.72-16.95a147.87,147.87,0,0,1,24.67,2.34L396.59,2.9A119.06,119.06,0,0,0,371.08,0C348.21,0,339,8.54,339,27.15V67.54c0,16.95,7.17,27,30.6,27a108,108,0,0,0,29.08-4V51Z" transform="translate(-0.9)"/>
</svg>
