<?xml version='1.0' encoding='UTF-8'?>
<!-- Generator: Adobe Illustrator 15.0.2, SVG Export Plug-In  -->
<!DOCTYPE svg PUBLIC "-//W3C//DTD SVG 1.1 Basic//EN" "http://www.w3.org/Graphics/SVG/1.1/DTD/svg11-basic.dtd" [
<!ENTITY ns_flows "http://ns.adobe.com/Flows/1.0/">
]>
<svg xmlns="http://www.w3.org/2000/svg" xmlns:xlink="http://www.w3.org/1999/xlink" xmlns:a="http://ns.adobe.com/AdobeSVGViewerExtensions/3.0/" version="1.1" baseProfile="basic" x="0px" y="0px" width="376" height="200" viewBox="12.2998 12.65625 220 117" enable-background="new 12.2998 12.65625 220 117" xml:space="preserve">
<defs>
</defs>
<g>
	<defs>
		<rect id="SVGID_1_" x="12.16406" y="12.71045" width="220.10254" height="116.6499"/>
	</defs>
	<clipPath id="SVGID_4_">
		<use xlink:href="#SVGID_1_" overflow="visible"/>
	</clipPath>
	<g clip-path="url(#SVGID_4_)">
		<defs>
			<rect id="SVGID_3_" width="244.05176" height="108.17285"/>
		</defs>
		<clipPath id="SVGID_5_">
			<use xlink:href="#SVGID_3_" overflow="visible"/>
		</clipPath>
		<path clip-path="url(#SVGID_5_)" fill="#BF1729" d="M202.0498,12.71045c-15.5,0-30.80273,10.94775-30.80273,32.22461    c0,19.81934,12.89453,32.14209,30.22266,32.14209c18.33398,0,30.79688-13.42676,30.79688-32.14209    C232.2666,23.08887,216.90723,12.71045,202.0498,12.71045 M201.71582,64.24609c-8.93555,0-15.54492-7.4585-15.54492-19.31104    c0-10.54199,5.36719-19.30078,15.54492-19.30078c11.23047,0,15.55078,10.36719,15.55078,19.30078    C217.2666,53.98926,212.94629,64.24609,201.71582,64.24609"/>
		<path clip-path="url(#SVGID_5_)" fill="#BF1729" d="M141.61426,39.62256l-0.01953,12.31543h10.56836v10.88623    c-0.87109,0.56055-3.69727,1.37109-7.4668,1.37109c-10.41602,0-16.39453-7.5835-16.39453-19.28662    c0-10.84229,4.45117-18.68945,17.57617-18.68945c5.33008,0,9.82617,0.95996,13.73242,2.59668l5.23828-12.10254    c-5.11523-2.50146-10.88477-3.99902-19.87695-3.99902c-18.1543,0-32.04639,12.95654-32.04639,32.59131    c0,17.43945,10.22363,31.7168,30.91162,31.7168c10.53125,0,18.25195-3.33789,21.92578-5.78906l-0.01172-31.61084H141.61426z"/>
		<path clip-path="url(#SVGID_5_)" fill="#BF1729" d="M97.69189,51.85205v-0.27637c3.07129-1.94043,6.03467-4.75635,7.79785-7.50732    c1.98975-3.09375,2.90576-6.71484,2.90576-10.45557c0-2.83203-0.51172-5.49121-1.52588-7.98242    c-0.96875-2.55029-2.55225-4.86914-4.7583-6.74268c-2.15332-1.8667-4.9292-3.3418-8.32861-4.41748    c-3.39795-1.07568-7.53418-1.61377-12.40137-1.61377c-3.68262,0-7.00293,0.1792-9.94385,0.45166    c-3.18359,0.29883-5.36475,0.56787-8.40576,1.05859v61.63818h14.44385V55.39551c1.7666,0.08105,3.10254,0.08447,5.03076,0.03369    c0,0,1.86328,0.66064,4.25391,3.73535c2.83887,3.64893,6.27734,9.34619,8.33008,16.84033h17.11963    C108.44092,65.10059,104.55469,54.98779,97.69189,51.85205 M90.76611,41.41406c-2.04053,1.5874-5.25195,2.53271-8.70605,2.53271    c-1.62598,0-3.62305-0.08789-4.58447-0.20215V25.98926c0.66064-0.12158,2.77881-0.31494,3.57715-0.33594    c0.80127-0.02979,2.146-0.04736,2.49414-0.04053c3.11475,0.04932,5.68848,0.77344,7.55176,2.24316    c1.86865,1.41699,2.80371,3.50488,2.80371,6.11182C93.90234,37.14063,92.81055,39.77197,90.76611,41.41406"/>
		<path clip-path="url(#SVGID_5_)" fill="#BF1729" d="M32.38916,62.83984c-3.20801,0-5.66504-1.77002-5.66504-5.95557v-6.66553    H50.4209l-0.01563-12.5752H26.72412V26.98047H54.7085l-0.01074-13.24658H12.27979v47.51514    c0,9.75488,3.81299,14.75586,14.64648,14.75586h28.93848l-0.01758-13.17041    C55.84717,62.83447,38.89307,62.83984,32.38916,62.83984"/>
	</g>
	<g clip-path="url(#SVGID_4_)">
		<defs>
			<rect id="SVGID_2_" width="244.05176" height="136.94434"/>
		</defs>
		<clipPath id="SVGID_6_">
			<use xlink:href="#SVGID_2_" overflow="visible"/>
		</clipPath>
		<path clip-path="url(#SVGID_6_)" fill="#010202" d="M19.03369,108.38574c0.65918,0,0.92627,0.06445,0.98926,0.24414    l5.45996,15.36328c0.06348,0.17188-0.33594,0.23438-0.9458,0.23438h-0.33057c-0.57275,0-0.94531-0.0625-1.01563-0.23438    l-1.2959-3.875h-6.20996l-1.30078,3.875c-0.05811,0.17188-0.38867,0.23438-0.96191,0.23438h-0.28613    c-0.61719,0-0.97217-0.0625-0.90039-0.23438l5.3667-15.36328c0.06006-0.17969,0.28857-0.24414,1.01074-0.24414H19.03369z     M16.19287,118.37793h5.17334l-2.59814-7.78711L16.19287,118.37793z"/>
		<path clip-path="url(#SVGID_6_)" fill="#010202" d="M34.8501,108.38574c0.85986,0,1.12158,0.08789,1.21143,0.33203    l4.0957,10.25781l3.98486-10.25781c0.08447-0.24414,0.28125-0.33203,1.14063-0.33203h0.15674    c0.9209,0,1.14258,0.11328,1.14258,0.33203l0.61865,15.27539c0,0.17188-0.31104,0.23438-0.86133,0.23438h-0.24268    c-0.5957,0-0.89795-0.0625-0.89795-0.23438l-0.39941-12.2207l-3.6333,9.49219c-0.06494,0.1543-0.28271,0.22461-0.98779,0.22461    h-0.17578c-0.72607,0-0.9248-0.07031-0.99121-0.24609l-3.67383-9.1582l-0.44336,11.9082    c0,0.17188-0.30225,0.23438-0.90137,0.23438H33.771c-0.54688,0-0.85596-0.0625-0.85596-0.23438l0.7207-15.27539    c0.02637-0.28516,0.15967-0.33203,1.10742-0.33203H34.8501z"/>
		<path clip-path="url(#SVGID_6_)" fill="#010202" d="M51.20166,112.6123c0.83496,0,0.9209,0.08789,0.9209,0.26758v5.76563    c0,1.73633,0.06689,2.64063,0.54834,3.23828c0.39746,0.47461,1.05664,0.74023,1.95996,0.74023    c0.86133,0,1.86865-0.2832,2.39795-0.78711c0.46045-0.43945,0.70459-1.09961,0.70459-3.52539v-5.43164    c0-0.1543,0.13916-0.26758,0.88232-0.26758h0.19727c0.74707,0,0.8999,0.08789,0.8999,0.26758v7.50195    c0,1.50195,0.04541,3.04102,0.04541,3.58594c0,0.17969-0.06152,0.25977-0.8999,0.25977h-0.08789    c-0.77344,0-0.89795-0.08008-0.89795-0.25977l-0.04932-0.94531h-0.02295c-0.81396,0.90625-2.02344,1.42773-3.65088,1.42773    c-1.18994,0-2.20068-0.38672-2.92676-1.16406c-0.77539-0.81641-1.08301-1.96289-1.08301-3.74023v-6.66602    c0-0.1543,0.04736-0.26758,0.88428-0.26758H51.20166z"/>
		<path clip-path="url(#SVGID_6_)" fill="#010202" d="M64.08984,112.6123c0.78906,0,0.90332,0.06641,0.90332,0.26758    l0.02295,0.99023h0.01953c0.76953-0.90625,2.2251-1.47852,3.58936-1.47852c1.21436,0,2.28516,0.41406,3.01611,1.16992    c0.79102,0.8125,1.12012,1.95508,1.12012,3.74023v6.66602c0,0.1582-0.01953,0.25977-0.90039,0.25977h-0.1333    c-0.87891,0-0.94775-0.08008-0.94775-0.25977v-5.74414c0-1.7832-0.06152-2.61328-0.59375-3.23047    c-0.41846-0.51367-1.125-0.73242-2.0918-0.73242c-0.81592,0-1.80371,0.29297-2.33105,0.79102    c-0.26563,0.24219-0.50635,0.61914-0.5957,1.56836c-0.04395,0.61914-0.06689,1.74023-0.06689,3.01563v4.33203    c0,0.1582-0.01953,0.25977-0.89648,0.25977h-0.13916c-0.87354,0-0.94531-0.08008-0.94531-0.25977v-7.50195    c0-1.49805-0.04248-3.03711-0.04248-3.58594c0-0.17969,0.06494-0.26758,0.90723-0.26758H64.08984z"/>
		<path clip-path="url(#SVGID_6_)" fill="#010202" d="M76.91455,107.65918c0.77002,0,1.38721,0.61914,1.38721,1.38867    c0,0.77344-0.61719,1.38477-1.38721,1.38477c-0.76807,0-1.38477-0.61133-1.38477-1.38477    C75.52979,108.27832,76.14648,107.65918,76.91455,107.65918 M77.00244,112.6123c0.88428,0,0.90381,0.11328,0.90381,0.26758    v11.08789c0,0.1582-0.01953,0.25977-0.90381,0.25977h-0.12988c-0.87695,0-0.94385-0.08008-0.94385-0.25977v-11.08789    c0-0.17969,0.06689-0.26758,0.94385-0.26758H77.00244z"/>
		<path clip-path="url(#SVGID_6_)" fill="#010202" d="M89.32861,122.69238c0.21777,0.5293,0.15625,0.68164,0,0.77344    c-1.10059,0.61719-2.37842,0.98438-3.74072,0.98438c-3.36963,0-5.0415-2.56641-5.0415-5.84766    c0-4.03125,2.35742-6.20898,5.41943-6.20898c1.37988,0,2.61377,0.48242,3.54004,1.14258    c0.17773,0.12695,0.17773,0.28906-0.12988,1.01758c-0.33594,0.74023-0.55371,0.67773-0.70508,0.56445    c-0.81201-0.54688-1.7207-0.92383-2.59961-0.92383c-2.04785,0-3.45947,1.54297-3.45947,4.26758    c0,2.12109,0.86328,4.1875,3.24512,4.1875c0.92432,0,1.92969-0.26367,2.78955-0.68555    c0.17578-0.08008,0.39355-0.02148,0.57129,0.43945L89.32861,122.69238z"/>
		<path clip-path="url(#SVGID_6_)" fill="#010202" d="M92.97754,107.50488c0.88428,0,0.94775,0.08984,0.94775,0.26367v6.0293    c0.76807-0.85156,2.19531-1.40625,3.51904-1.40625c1.21436,0,2.29199,0.41406,3.0127,1.16992    c0.79639,0.8125,1.12354,1.95508,1.12354,3.74023v6.66602c0,0.16211-0.01953,0.26758-0.90186,0.26758h-0.125    c-0.88574,0-0.94922-0.08789-0.94922-0.26758v-5.74414c0-1.7832-0.07031-2.61914-0.5957-3.23828    c-0.41846-0.50195-1.11816-0.7207-2.0918-0.7207c-0.81592,0-1.80518,0.28906-2.3291,0.78711    c-0.26563,0.25-0.50977,0.62305-0.59619,1.56836c-0.04004,0.61914-0.06641,1.74414-0.06641,3.01563v4.33203    c0,0.16211-0.02148,0.26758-0.90381,0.26758H92.8916c-0.88428,0-0.9458-0.08789-0.9458-0.26758v-16.19922    c0-0.15234,0.02295-0.26367,0.90186-0.26367H92.97754z"/>
		<path clip-path="url(#SVGID_6_)" fill="#010202" d="M114.09961,108.38574c3.37158,0,5.96582,0.9043,5.96582,4.49023    c0,2.29297-1.125,3.78711-3.23242,4.58008l1.05615,2.04297c0.7876,1.58984,1.56104,2.88672,2.63672,4.38867    c0.11279,0.17188-0.23877,0.34766-0.87695,0.34766h-0.41846c-0.68213,0-1.03857-0.22266-1.16699-0.41797    c-0.85986-1.21289-1.29736-2.13086-1.98291-3.46094l-1.33789-2.61914h-2.26904v6.25586c0,0.17188-0.33252,0.24219-0.90186,0.24219    h-0.23926c-0.61865,0-0.9541-0.07031-0.9541-0.24219v-15.60742H114.09961z M112.47363,116.06738h2.00049    c2.46582,0,3.43652-1.31836,3.43652-3.12109c0-2.61914-2.04443-2.86523-3.479-2.86523h-1.95801V116.06738z"/>
		<path clip-path="url(#SVGID_6_)" fill="#010202" d="M124.00293,119.12402c0.06494,1.21289,0.4165,2.16211,1.09717,2.73047    c0.59375,0.53125,1.45361,0.79492,2.59766,0.79492c0.92432,0,1.84912-0.2207,2.90576-0.70703    c0.19629-0.08789,0.33203-0.13281,0.55664,0.41602l0.10352,0.26563c0.24316,0.57813,0.21973,0.70703,0.04395,0.81641    c-1.12109,0.66016-2.50586,1.00977-3.98242,1.00977c-3.56494,0-5.38916-2.21875-5.38916-5.76563    c0-3.69922,2.02295-6.29297,5.27832-6.29297c1.96143,0,3.30127,0.96289,4.02686,2.42188    c0.50586,1.00586,0.72656,2.21875,0.72656,3.51953c0,0.66016-0.04688,0.79102-0.2207,0.79102H124.00293z M129.94434,117.49902    c-0.02148-1.64844-0.86133-3.30469-2.70508-3.30469c-1.60693,0-2.86377,1.03711-3.17139,3.30469H129.94434z"/>
		<path clip-path="url(#SVGID_6_)" fill="#010202" d="M148.18066,122.69238c0.21875,0.5293,0.1582,0.68164,0,0.77344    c-1.09961,0.61719-2.37695,0.98438-3.73633,0.98438c-3.37695,0-5.04102-2.56641-5.04102-5.84766    c0-4.03125,2.35352-6.20898,5.41211-6.20898c1.38281,0,2.61719,0.48242,3.54102,1.14258    c0.17969,0.12695,0.17969,0.28906-0.13086,1.01758c-0.33008,0.74023-0.54688,0.67773-0.70313,0.56445    c-0.81445-0.54688-1.71875-0.92383-2.59375-0.92383c-2.05078,0-3.46289,1.54297-3.46289,4.26758    c0,2.12109,0.86328,4.1875,3.24219,4.1875c0.92383,0,1.93555-0.26367,2.79102-0.68555    c0.17969-0.08008,0.39648-0.02148,0.57227,0.43945L148.18066,122.69238z"/>
		<path clip-path="url(#SVGID_6_)" fill="#010202" d="M158.89551,113.49512c1.10156,0.9668,1.74023,2.59375,1.74023,4.66211    c0,4.16211-2.17188,6.29492-5.48047,6.29492c-1.33984,0-2.46484-0.34766-3.30078-1.09961    c-1.09961-0.9668-1.73633-2.59766-1.73633-4.66602c0-4.1543,2.17188-6.29492,5.47656-6.29492    C156.93848,112.3916,158.05957,112.74316,158.89551,113.49512 M152.18066,118.53223c0,1.98242,0.66211,4.16211,3.0625,4.16211    c1.76172,0,3.32617-1.23633,3.32617-4.38281c0-1.97656-0.66406-4.16016-3.06641-4.16016    C153.74902,114.15137,152.18066,115.38574,152.18066,118.53223"/>
		<path clip-path="url(#SVGID_6_)" fill="#010202" d="M164.21973,112.6123c0.79102,0,0.90234,0.06641,0.90234,0.26758    l0.02148,0.99023h0.02539c0.76563-0.90625,2.04883-1.47852,3.40625-1.47852c1.21289,0,2.24219,0.41406,2.97461,1.16992    c0.19922,0.21484,0.36523,0.43555,0.50586,0.69922c0.87891-1.20898,2.40039-1.86914,3.96484-1.86914    c1.20703,0,2.24414,0.41406,2.9668,1.16992c0.79492,0.8125,1.12305,1.95508,1.12305,3.74023v6.66602    c0,0.1582-0.02148,0.25977-0.90039,0.25977h-0.13086c-0.88281,0-0.94922-0.08008-0.94922-0.25977v-5.74414    c0-1.7832-0.07031-2.61328-0.59375-3.23047c-0.41406-0.51367-1.17383-0.73242-2.00391-0.73242    c-0.76953,0-1.69531,0.29297-2.20508,0.77344c-0.25977,0.24023-0.50195,0.61523-0.58594,1.56055    c-0.04688,0.61914-0.07031,1.73828-0.07031,3.01758v4.35547c0,0.1582-0.02148,0.25977-0.89648,0.25977h-0.14063    c-0.87891,0-0.94336-0.08008-0.94336-0.25977v-5.74414c0-1.7832-0.06641-2.61328-0.59766-3.23047    c-0.41016-0.51367-1.16211-0.73242-1.99609-0.73242c-0.76953,0-1.69727,0.29297-2.20508,0.77344    c-0.26367,0.24023-0.50586,0.61523-0.59375,1.56055c-0.04102,0.61914-0.0625,1.73828-0.0625,3.01758v4.35547    c0,0.1582-0.01758,0.25977-0.9082,0.25977h-0.12891c-0.87891,0-0.94922-0.08008-0.94922-0.25977v-7.50195    c0-1.49805-0.03906-3.03711-0.03906-3.58594c0-0.17969,0.0625-0.26758,0.90039-0.26758H164.21973z"/>
		<path clip-path="url(#SVGID_6_)" fill="#010202" d="M184.28223,112.6123c0.79883,0,0.92578,0.07031,0.92578,0.26367    l0.02344,0.99805h-0.02344c0.68555-0.86523,1.98242-1.48242,3.19531-1.48242c2.9043,0,4.68555,2.18164,4.68555,5.78516    c0,3.30469-1.74023,6.25586-5.36719,6.25586c-0.86133,0-1.84961-0.30664-2.39844-0.68555v5.30469    c0,0.22461-0.20313,0.28711-0.95703,0.28711h-0.125c-0.70703,0-0.9043-0.0625-0.9043-0.28711v-12.58594    c0-1.49805-0.04297-3.03711-0.04297-3.58984c0-0.17578,0.06445-0.26367,0.90039-0.26367H184.28223z M185.32324,121.80957    c0.54883,0.4707,1.40234,0.83984,2.28516,0.83984c2.06641,0,3.41016-1.74023,3.41016-4.4043    c0-2.66211-1.22656-4.07617-2.94922-4.07617c-0.87891,0-1.89453,0.4043-2.33398,0.97852    c-0.39063,0.50195-0.41211,1.07617-0.41211,3.25195V121.80957z"/>
		<path clip-path="url(#SVGID_6_)" fill="#010202" d="M204.04395,112.6123c0.83594,0,0.85742,0.08789,0.85742,0.26367    c0,0.52344-0.04102,1.9375-0.04102,3.34375v3.08203c0,2.02148,0.08789,3.45703,0.15039,4.66602    c0,0.17969-0.10938,0.25977-0.78711,0.25977h-0.0957c-0.67773,0-0.8125-0.0625-0.83008-0.25977l-0.13672-1.01953    c-0.69922,0.86914-1.95117,1.50195-3.38477,1.50195c-3.21289,0-4.71094-2.66211-4.71094-5.82227    c0-3.77344,2.1582-6.23633,5.05859-6.23633c1.32617,0,2.35938,0.61719,2.97852,1.40625l0.10742-0.92188    c0.02148-0.26367,0.13086-0.26367,0.78906-0.26367H204.04395z M202.87598,115.6709    c-0.50586-0.79102-1.49609-1.50195-2.52734-1.50195c-2.02539,0-3.21289,1.69922-3.21289,4.3418    c0,2.07227,0.72852,4.18164,2.98828,4.18164c0.72852,0,1.61328-0.22266,2.20508-0.85547    c0.46289-0.51367,0.54688-1.12109,0.54688-3.04102V115.6709z"/>
		<path clip-path="url(#SVGID_6_)" fill="#010202" d="M209.22949,112.6123c0.79883,0,0.90625,0.06641,0.90625,0.26758    l0.02148,0.99023h0.02539c0.76563-0.90625,2.2207-1.47852,3.58594-1.47852c1.20898,0,2.28906,0.41406,3.01563,1.16992    c0.79102,0.8125,1.12109,1.95508,1.12109,3.74023v6.66602c0,0.1582-0.01953,0.25977-0.90625,0.25977h-0.12695    c-0.87891,0-0.94922-0.08008-0.94922-0.25977v-5.74414c0-1.7832-0.05859-2.61328-0.59375-3.23047    c-0.41406-0.51367-1.12109-0.73242-2.0918-0.73242c-0.8125,0-1.80273,0.29297-2.33008,0.79102    c-0.26172,0.24219-0.50391,0.61914-0.59766,1.56836c-0.04297,0.61914-0.06055,1.74023-0.06055,3.01563v4.33203    c0,0.1582-0.02148,0.25977-0.9043,0.25977h-0.13281c-0.87891,0-0.94922-0.08008-0.94922-0.25977v-7.50195    c0-1.49805-0.03906-3.03711-0.03906-3.58594c0-0.17969,0.06055-0.26758,0.9043-0.26758H209.22949z"/>
		<path clip-path="url(#SVGID_6_)" fill="#010202" d="M223.69238,118.33301c0.59375,1.58789,0.90039,2.55078,1.20898,3.76367    c0.24023-1.00781,0.67969-2.30469,1.12305-3.60547l1.96094-5.63672c0.06055-0.19922,0.30273-0.23828,0.98828-0.23828    c0.86523,0,1.09961,0.0625,1.00781,0.30469l-4.1582,11.58398c-0.57031,1.59961-1.1875,2.78906-1.87109,3.51953    c-0.89844,0.96094-2.00391,1.33594-3.2793,1.33594c-0.57227,0-1.29297-0.15039-1.75781-0.39258    c-0.24609-0.12695-0.19727-0.31445-0.07031-0.70703l0.0918-0.25977c0.17578-0.53516,0.24609-0.61914,0.48438-0.55273    c0.39453,0.11328,0.74609,0.19336,1.18945,0.19336c1.45508,0,2.30859-0.79102,3.23633-3.27734l-4.38281-11.44336    c-0.10938-0.26563,0.1582-0.30469,1.03711-0.30469c0.78711,0,1.05469,0.0625,1.12109,0.23828L223.69238,118.33301z"/>
	</g>
</g>
</svg>
