<?xml version='1.0' encoding='UTF-8'?>
<svg xmlns="http://www.w3.org/2000/svg" id="Layer_1" width="1692" height="200" version="1.1" viewBox="0 0 220 26">
  <defs>
    <style> .st0 { fill: #18b68a; } .st1 { fill: #292827; } </style>
  </defs>
  <path class="st0" d="M8.3926027,8.0807111c1.9563808.5954657,2.9865561,1.077446,3.5016375,1.3184586,1.5452623.7229929,2.1312342,1.4885082,2.4242201,1.871356.8789568,1.1482744.8789568,2.3769159.8789568,2.9912357,0,1.644474-.5198183,2.5706787-.7797184,3.0338497-.7797241,1.389286-1.8476982,1.946909-2.381691,2.2257195-1.6019611.8364334-3.2464561.8364334-4.0687046.8364334-1.9280319,0-3.07162-.4253273-3.6434088-.637989-1.7153797-.6379013-2.4903736-1.3845615-2.8778703-1.7578697-1.1624877-1.1199703-1.35151-2.0650749-1.4460239-2.5376501l3.4591143-1.3325882c.2835331,1.1341,1.058527,1.5688753,1.4460182,1.7862635,1.1624932.6521187,2.2021127.6521187,2.7219253.6521187,1.7295542,0,2.3344307-.4064274,2.6368666-.6095963.9073067-.6095963.9073067-1.2145119.9073067-1.516902,0-.5954218-.2457256-.8695078-.3685894-1.0065727-.3685942-.4111071-.9829206-.6662941-1.290081-.7938652-.9214869-.3827581-1.9989157-.7041378-2.5376277-.8648272-3.4307597-1.0207033-4.4325771-1.9563589-4.9334874-2.4242086-1.5027305-1.403461-1.5027305-2.8589401-1.5027305-3.5867023,0-.9923091.2551813-1.663373.382772-1.9988823.3827692-1.0065284.9309362-1.5641508,1.2050201-1.8429621.822248-.8364335,1.7201047-1.1861176,2.1690331-1.3609374,1.3467851-.524593,2.6132393-.524593,3.2464595-.524593,1.5310879,0,2.4761992.3497286,2.9487514.524593,1.4176693.5245038,2.098155,1.1860731,2.4383888,1.5169023,1.0207253.9923539,1.2097473,1.9374592,1.3042612,2.4100339l-3.3457012,1.247541c-.1134129-.6237702-.4631033-.9073067-.6379557-1.0490966-.5245314-.425282-.9970903-.5859718-1.233366-.6662941-.7088404-.2410123-1.2002926-.2410123-1.4460239-.2410123-1.1908455-.0283492-1.8051662.2646368-2.1123266.4111073-.9214869.4395008-.9214869,1.1010699-.9214869,1.4318547,0,.4536753.2079215.7182674.3118906.8506083.3118825.3969769.8694992.6521196,1.1483107.7797351.8364224.3827581,1.8760471.704093,2.3958607.8647385Z"/>
  <path class="st0" d="M22.9654186,9.5834835c-1.1908417,0-1.6823006.4347315-1.9280319.6521196-.7371845.6520748-.9073067,1.3325882-.9923706,1.672823h5.6706829c-.2268314-1.0207472-.67103-1.4554348-.8931313-1.672823-.6663055-.6521196-1.4601974-.6521196-1.8571491-.6521196ZM29.1748054,14.5452983h-9.1014366c.3118916.9923983.8317032,1.4082308,1.09161,1.616169.7797127.6237698,1.5547123.6237698,1.9422073.6237698,1.6728497,0,2.2399178-.812809,2.523447-1.2192364l3.1188736,1.5311222c-.8505974,1.4176807-1.8240681,1.9941578-2.3108006,2.2824631-1.4601974.8647385-2.7077503.8647385-3.3315201.8647385-1.9563866,0-3.0054607-.6332207-3.5299931-.949831-1.5736122-.949831-2.1784878-2.0178261-2.4809246-2.5518246-.9073067-1.6019497-.9073067-2.906189-.9073067-3.5583086,0-1.9847527.5859718-3.0432987.878952-3.5725718.8789577-1.5877752,1.8996773-2.2115459,2.4100399-2.5234308,1.5310764-.9356556,2.8353386-.9356556,3.487463-.9356556,1.9563808,0,2.9014969.6238151,3.3740501.9356556,1.417675.9356556,1.9280319,1.9942026,2.1832123,2.5234308.7655392,1.5878201.7655392,2.9109583.7655392,3.5725727,0,.3685837-.0189056.5954208-.0283489.7088175-.0283546.3402348-.0661583.548173-.0850639.6521196Z"/>
  <rect class="st0" x="31.1304634" y=".0859611" width="3.7709999" height="19.9315243"/>
  <rect class="st0" x="37.3112075" y=".0859611" width="3.7709923" height="19.9315243"/>
  <polygon class="st1" points="57.0743873 3.799366 47.8311851 3.799366 47.8311851 8.3075492 55.1747139 8.3075492 55.1747139 11.908426 47.8311851 11.908426 47.8311851 20.0174854 44.060189 20.0174854 44.060189 .1701398 57.0743873 .1701398 57.0743873 3.799366"/>
  <path class="st1" d="M65.2677314,9.5834835c-1.1908417,0-1.6822929.4347315-1.9280319.6521196-.7371788.6520748-.9073067,1.3325882-.9923668,1.672823h5.6706734c-.2268295-1.0207472-.6710281-1.4554348-.8931351-1.672823-.6663055-.6521196-1.4601898-.6521196-1.8571396-.6521196ZM71.4771354,14.5452983h-9.1014481c.3118973.9923983.831707,1.4082308,1.09161,1.616169.7797279.6237698,1.5547142.6237698,1.9422035.6237698,1.6728439,0,2.2399139-.812809,2.5234528-1.2192364l3.1188736,1.5311222c-.8505936,1.4176807-1.8240738,1.9941578-2.3108139,2.2824631-1.4601898.8647385-2.7077332.8647385-3.3315125.8647385-1.9563828,0-3.005455-.6332207-3.5299911-.949831-1.5736122-.949831-2.1784821-2.0178261-2.4809189-2.5518246-.9073181-1.6019497-.9073181-2.906189-.9073181-3.5583086,0-1.9847527.5859718-3.0432987.8789673-3.5725718.8789444-1.5877752,1.8996735-2.2115459,2.4100227-2.5234308,1.5310783-.9356556,2.8353462-.9356556,3.4874687-.9356556,1.9563828,0,2.9014969.6238151,3.3740463.9356556,1.4176788.9356556,1.9280319,1.9942026,2.1832199,2.5234308.7655411,1.5878201.7655411,2.9109583.7655411,3.5725727,0,.3685837-.0189133.5954208-.0283508.7088175-.0283508.3402348-.0661621.548173-.0850525.6521196Z"/>
  <path class="st1" d="M79.5004127,9.5834835c-1.1908417,0-1.6823044.4347315-1.9280396.6521196-.737175.6520748-.9072952,1.3325882-.9923553,1.672823h5.6706772c-.2268295-1.0207472-.6710281-1.4554348-.8931427-1.672823-.6663055-.6521196-1.4601898-.6521196-1.8571396-.6521196ZM85.7098014,14.5452983h-9.1014404c.311882.9923983.8316956,1.4082308,1.0916061,1.616169.7797165.6237698,1.5547104.6237698,1.9421921.6237698,1.6728592,0,2.2399292-.812809,2.523468-1.2192364l3.118866,1.5311222c-.8505936,1.4176807-1.8240738,1.9941578-2.3107986,2.2824631-1.4601898.8647385-2.7077484.8647385-3.3315277.8647385-1.9563828,0-3.005455-.6332207-3.5299911-.949831-1.5736084-.949831-2.1784821-2.0178261-2.4809189-2.5518246-.9073029-1.6019497-.9073029-2.906189-.9073029-3.5583086,0-1.9847527.585968-3.0432987.8789444-3.5725718.8789597-1.5877752,1.8996735-2.2115459,2.4100418-2.5234308,1.5310745-.9356556,2.8353271-.9356556,3.4874725-.9356556,1.9563828,0,2.9014893.6238151,3.3740387.9356556,1.4176712.9356556,1.9280319,1.9942026,2.1832199,2.5234308.7655487,1.5878201.7655487,2.9109583.7655487,3.5725727,0,.3685837-.0189133.5954208-.0283585.7088175-.0283508.3402348-.0661621.548173-.0850601.6521196Z"/>
</svg>
