<?xml version='1.0' encoding='UTF-8'?>
<svg xmlns="http://www.w3.org/2000/svg" width="625" height="200" viewBox="0 0 124.773 39.9">
  <path id="Path_357" data-name="Path 357" d="M-53.295-39.9h-7.638V0h7.638Zm28.9,24.624h-8.892l4.446-12.939Zm2.622,7.239L-18.924,0h7.98l-14.25-39.9h-7.3L-46.74,0h7.98l2.85-8.037Zm29.7-8.379L17.556,0h8.778L16.416-16.815C22-18.126,25.023-22.23,25.023-28.158c0-7.182-4.5-11.742-12.6-11.742H-4.389V0H3.249V-16.416Zm9.462-11.628c0,2.736-1.881,4.218-4.788,4.218H3.249v-8.493H12.6C15.5-32.319,17.385-30.837,17.385-28.044Zm24,8.208V-32.319h8.664A5.892,5.892,0,0,1,56.2-26.106c0,3.078-1.938,6.27-6.156,6.27Zm0,7.581h8.664c9.462,0,13.794-6.612,13.794-13.851,0-7.3-4.332-13.794-13.794-13.794h-16.3V0h7.638Z" transform="translate(60.933 39.9)" fill="#fff"/>
</svg>
