<?xml version='1.0' encoding='UTF-8'?>
<!-- Generator: Adobe Illustrator 28.2.0, SVG Export Plug-In . SVG Version: 6.00 Build 0)  -->
<svg xmlns="http://www.w3.org/2000/svg" xmlns:xlink="http://www.w3.org/1999/xlink" version="1.1" id="Warstwa_1" x="0px" y="0px" viewBox="0 0 100 48" style="enable-background:new 0 0 100 48;" xml:space="preserve" width="417" height="200">
<style type="text/css">
	.st0{fill:#E4202C;}
	.st1{fill:url(#SVGID_1_);}
	.st2{fill:url(#SVGID_00000128446085591031475850000015895611526273189278_);}
	.st3{fill:url(#SVGID_00000008845081983797784200000012360046123687367359_);}
</style>
<g>
	<g>
		<path d="M38.48,32.53c-1.69,0-2.49-0.42-2.49-1.54v-6.64c0-1.79,1.64-1.68,2.37-1.68c2.43,0,3.3,1.09,3.3,2.34    c0,1.17-0.85,1.9-1.76,2.22v0.03c1.17,0.2,2.33,0.98,2.33,2.56C42.23,31.2,41.31,32.53,38.48,32.53z M38.38,23.38    c-0.61,0-1.2,0.08-1.2,1.12v2.52c0.15,0.01,0.46,0.03,0.87,0.03c1.43,0,2.4-0.68,2.4-1.89C40.45,24.11,39.84,23.38,38.38,23.38z     M38.11,27.65c-0.49,0-0.75,0.01-0.93,0.03v3.15c0,0.74,0.35,0.95,1.29,0.95c1.72,0,2.47-0.91,2.47-2.02    C40.94,28.37,40.06,27.65,38.11,27.65z"/>
		<path d="M49.12,32.4c-0.11,0.03-0.33,0.04-0.42,0.04c-0.31,0-0.52-0.14-0.57-0.59l-0.04-0.33l-0.1-0.03    c-0.49,0.67-1.06,1.08-1.81,1.08c-1.55,0-2.62-1.16-2.62-3.37c0-2.36,1.55-4.01,3.16-4.01c0.79,0,2.4,0.2,2.4,1.43V32.4z     M47.99,26.72c0-0.59-0.34-0.87-1.27-0.87c-0.98,0-2.02,0.93-2.02,3.09c0,1.99,0.82,2.71,1.76,2.71c0.68,0,1.17-0.41,1.53-0.83    V26.72z"/>
		<path d="M55.24,32.41v-5.09c0-0.75-0.4-1.51-1.69-1.51c-1.31,0-1.4,0.52-1.4,0.97v5.63h-1.13V26.4c0-0.42,0.14-0.64,0.52-0.83    c0.41-0.2,1.11-0.38,2.07-0.38c1.2,0,2.77,0.34,2.77,2.09v5.14H55.24z"/>
		<path d="M59.27,32.41h-1.12V22.14h1.12v6.46l2.28-2.65c0.49-0.55,1.04-0.64,1.39-0.64c0.23,0,0.4,0.04,0.4,0.04l-2.14,2.41    c-0.4,0.44-0.84,0.82-1.15,0.82v0.24c0.3,0,0.75,0.23,1.25,0.83l2.35,2.74c0,0-0.19,0.05-0.46,0.05c-0.4,0.01-0.97-0.08-1.36-0.55    c-0.53-0.61-2.55-3.15-2.55-3.15V32.41z"/>
		<path d="M71.05,28.8c-0.26,0-0.65-0.05-0.89-0.08v3.69h-1.24v-7.92c0-0.45-0.25-1.81,2.4-1.81c2.37,0,3.45,1.32,3.45,2.97    C74.77,27.51,73.61,28.8,71.05,28.8z M71.36,23.38c-1.31,0-1.2,0.79-1.2,1.12v3.52c0.19,0.03,0.57,0.07,0.8,0.07    c1.81,0,2.54-0.98,2.54-2.43C73.5,24.42,72.87,23.38,71.36,23.38z"/>
		<path d="M78.42,32.57c-2.06,0-3.07-1.76-3.07-3.72c0-1.96,1.06-3.67,3.07-3.67c2.01,0,3.08,1.7,3.08,3.67    C81.5,30.81,80.48,32.57,78.42,32.57z M78.38,25.84c-1.34,0-1.85,1.42-1.85,2.86c0,1.47,0.55,3.14,1.91,3.14    c1.45,0,1.89-1.44,1.89-2.9C80.33,27.47,79.78,25.84,78.38,25.84z"/>
		<path d="M82.88,32.41V22.18h1.15v10.23H82.88z"/>
		<path d="M90.57,30.46c0,1.27-1.08,2.04-2.5,2.07c-1.2-0.01-2.64-0.65-2.64-2.17v-0.04c0.1-0.01,0.19-0.03,0.29-0.03    c0.56,0,0.94,0.31,1.09,0.7c0.12,0.31,0.59,0.89,1.31,0.89c0.64,0,1.36-0.45,1.36-1.21c0-1.74-3.8-1.43-3.8-3.54    c0-1.21,1.05-1.94,2.39-1.94c1.16,0,2.33,0.55,2.33,1.89c-0.49,0.12-1.01,0.03-1.25-0.65c-0.11-0.31-0.55-0.65-1.02-0.65h-0.1    c-0.74,0-1.3,0.41-1.3,1.12C86.73,28.58,90.57,28.2,90.57,30.46z"/>
		<path d="M93.16,32.41h-1.12V22.14h1.12v6.46l2.28-2.65c0.49-0.55,1.04-0.64,1.39-0.64c0.23,0,0.4,0.04,0.4,0.04l-2.14,2.41    c-0.4,0.44-0.85,0.82-1.15,0.82v0.24c0.3,0,0.75,0.23,1.25,0.83l2.35,2.74c0,0-0.19,0.05-0.46,0.05c-0.4,0.01-0.97-0.08-1.36-0.55    c-0.53-0.61-2.55-3.15-2.55-3.15V32.41z"/>
		<path d="M99.18,24.07c-0.48,0-0.83-0.35-0.83-0.82c0-0.45,0.35-0.82,0.83-0.82c0.46,0,0.82,0.37,0.82,0.82    C100,23.71,99.65,24.07,99.18,24.07z M98.61,32.41v-7.06h1.15v7.06H98.61z"/>
	</g>
	<g>
		<path class="st0" d="M13.24,13.05c2.29,0,4.15-1.86,4.15-4.15c0-2.29-1.86-4.15-4.15-4.15c-2.29,0-4.15,1.86-4.15,4.15    C9.09,11.19,10.95,13.05,13.24,13.05z"/>
		<g>
			
				<radialGradient id="SVGID_1_" cx="13.5256" cy="14.3081" r="28.8555" gradientTransform="matrix(0.9941 0 0 0.9941 -0.3288 0.1233)" gradientUnits="userSpaceOnUse">
				<stop offset="0" style="stop-color:#004C9A"/>
				<stop offset="0.1431" style="stop-color:#004994"/>
				<stop offset="0.3303" style="stop-color:#013F84"/>
				<stop offset="0.5421" style="stop-color:#033069"/>
				<stop offset="0.771" style="stop-color:#051A43"/>
				<stop offset="1" style="stop-color:#070016"/>
			</radialGradient>
			<path class="st1" d="M13.25,24.94c5.5,0,10.21-1.36,12.2-3.26c0.66-0.63,1.02-1.32,1.02-2.03c0-0.72-0.36-1.4-1.02-2.04     c-0.66-0.63-1.63-1.21-2.83-1.69c-2.4-0.97-5.72-1.57-9.39-1.57c0,0-0.02,0-0.03,0c-4.93,0-9.2,1.13-11.49,2.7     c-1.35,0.93-1.71,2-1.71,3.3c0,0.09,0.01,10.53,0.01,10.53v3.42c0,0,0,0.37,0,0.77c0,1.67,0.5,2.4,0.71,2.76     c0.7,1.19,1.69,2.17,2.87,2.87l0.09,0.05v-6.46v-8v-2.99l0.11,0.04c2.4,0.98,5.75,1.59,9.44,1.59     C13.24,24.94,13.25,24.94,13.25,24.94z M7.64,19.48c-0.09-0.1-0.12-0.23-0.12-0.31c0-0.24,0.18-0.52,0.5-0.68     c0.15-0.07,0.31-0.11,0.47-0.11h9.71c0.15,0,0.31,0.04,0.47,0.11c0.32,0.15,0.5,0.43,0.5,0.68c0,0.08-0.03,0.21-0.12,0.31     c-0.13,0.15-0.34,0.24-0.53,0.24H8.18C7.98,19.72,7.77,19.63,7.64,19.48z"/>
			
				<radialGradient id="SVGID_00000090978381604999371960000012743982326757125253_" cx="13.5251" cy="14.3075" r="28.856" gradientTransform="matrix(0.9941 0 0 0.9941 -0.3288 0.1233)" gradientUnits="userSpaceOnUse">
				<stop offset="0" style="stop-color:#004C9A"/>
				<stop offset="0.1431" style="stop-color:#004994"/>
				<stop offset="0.3303" style="stop-color:#013F84"/>
				<stop offset="0.5421" style="stop-color:#033069"/>
				<stop offset="0.771" style="stop-color:#051A43"/>
				<stop offset="1" style="stop-color:#070016"/>
			</radialGradient>
			<path style="fill:url(#SVGID_00000090978381604999371960000012743982326757125253_);" d="M15.16,40.87c0,0,0-4.19,0-4.21     c0-1.27-1.04-2.31-2.32-2.32c-0.01,0-0.02,0-0.03,0v-0.39c1.32-0.16,2.36-1.19,2.36-2.55l0-2.96c0-0.67,0.07-1.34,0.24-1.96     l0.02-0.08l-0.09,0.01c-0.39,0.03-0.98,0.04-1.6,0.04c-0.92,0-1.92-0.03-2.45-0.08l-0.05,0l-0.02,0.05     c-0.23,0.71-0.31,1.32-0.31,2.1v3.36c0,0.7-0.54,1.48-1.49,1.51v-7.21l-0.05-0.01c-1.62-0.21-2.83-0.47-4.12-0.9l-0.08-0.03     l0,16.46l0.04,0.02c1.31,0.58,2.54,0.96,4.15,1.23l0.07,0.01v-8.41c0.92,0.03,1.49,0.77,1.49,1.52v4.56     c0,0.94,0.17,1.74,0.45,2.53l0.01,0.04l0.04,0c0.31,0.03,0.87,0.05,1.5,0.05c0.87,0,1.86-0.04,2.53-0.13l0.07-0.01l-0.02-0.07     C15.25,42.32,15.16,41.67,15.16,40.87z"/>
			
				<radialGradient id="SVGID_00000114034693449098689720000015559829484239451268_" cx="13.5273" cy="14.3084" r="28.8523" gradientTransform="matrix(0.9941 0 0 0.9941 -0.3288 0.1233)" gradientUnits="userSpaceOnUse">
				<stop offset="0" style="stop-color:#004C9A"/>
				<stop offset="0.1431" style="stop-color:#004994"/>
				<stop offset="0.3303" style="stop-color:#013F84"/>
				<stop offset="0.5421" style="stop-color:#033069"/>
				<stop offset="0.771" style="stop-color:#051A43"/>
				<stop offset="1" style="stop-color:#070016"/>
			</radialGradient>
			<path style="fill:url(#SVGID_00000114034693449098689720000015559829484239451268_);" d="M26.08,24.53     c-0.02-0.39-0.34-0.7-0.73-0.7c-0.12,0-0.23,0.03-0.33,0.08c-1.8,1.05-4.38,1.92-7.25,2.29c-0.64,0.08-1.1,0.64-1.1,1.3     l-0.01,14.15c0,0.59,0.47,1.06,1.06,1.06c0.07,0,0.15-0.01,0.22-0.02c2.26-0.58,4.17-1.45,5.68-2.66     c1.35-1.13,2.45-2.71,2.45-4.55C26.08,35.45,26.08,24.53,26.08,24.53z M22.4,28.06l0,9.84c0,0.23-0.16,0.5-0.42,0.68     c-0.37,0.25-0.82,0.24-0.99-0.03c-0.05-0.08-0.07-0.16-0.07-0.26l0-10.19c0.01-0.27,0.23-0.53,0.57-0.62     c0.08-0.02,0.16-0.03,0.24-0.03c0.32,0,0.58,0.16,0.66,0.42c0.01,0.04,0.02,0.09,0.02,0.14V28.06z"/>
		</g>
	</g>
</g>
</svg>
