<?xml version='1.0' encoding='UTF-8'?>
<svg xmlns="http://www.w3.org/2000/svg" fill="none" viewBox="0 0 512 77" height="200" width="1330">
<path fill="black" d="M160.153 20.6012H169.858C178.544 20.6012 179.481 27.4466 179.481 30.388C179.481 33.3295 178.544 40.1749 169.858 40.1749H168.409V46.2268L169.858 46.2319C181.795 46.2319 186.032 37.6969 186.032 30.3855C186.032 23.0741 181.795 14.5391 169.858 14.5391H153.602V65.7238H160.153V20.6012Z"/>
<path fill="black" d="M323.288 40.1337C323.288 24.5944 312.009 13.3125 296.467 13.3125C280.928 13.3125 269.648 24.5919 269.648 40.1337C269.648 55.6755 280.928 66.9548 296.467 66.9548C312.009 66.9523 323.288 55.6729 323.288 40.1337ZM317.068 40.1337C317.068 52.2604 308.597 60.734 296.467 60.734C284.338 60.734 275.867 52.263 275.867 40.1337C275.867 28.0069 284.338 19.5384 296.467 19.5384C308.597 19.5359 317.068 28.0069 317.068 40.1337Z"/>
<path fill="black" d="M392.081 41.9376V14.543H385.532V42.0195C385.532 54.0874 380.256 60.7331 370.669 60.7331C360.997 60.7331 355.884 54.2614 355.884 42.0195V14.543H349.336V41.9376C349.336 58.0682 356.911 66.9539 370.669 66.9539C384.477 66.9539 392.081 58.0682 392.081 41.9376Z"/>
<path fill="black" d="M462.36 14.543H455.474L438.877 55.1318L422.386 15.1778L422.122 14.543H414.992L435.887 65.0954L436.151 65.7277H441.204L462.36 14.543Z"/>
<path fill="black" d="M234.181 44.5257C240.563 42.5955 244.321 37.2604 244.321 29.9798C244.321 22.5174 240.071 14.543 228.147 14.543H211.891V65.7277H218.442V20.6025H228.147C236.521 20.6025 237.77 26.4777 237.77 29.9798C237.77 36.2544 234.373 39.4365 227.676 39.4365H226.636L226.639 44.6102L241.287 65.7277H249.118L234.181 44.5257Z"/>
<path fill="black" d="M511.265 37.0703H497.617V42.7049H511.265V37.0703Z"/>
<path fill="black" d="M512.006 14.457H483.484V65.7314H512.006V60.0942H489.659V20.2273H512.006V14.457Z"/>
<path fill="black" d="M507.232 5.05601L504.578 0L492.172 5.95457L494.855 10.8391L507.232 5.05601Z"/>
<path fill="black" d="M46.1808 24.7323C26.7221 24.7323 19.8203 38.6383 19.8203 50.5448C19.8203 62.4489 26.7247 76.3548 46.1808 76.3548H88.2418V2.42188H80.5695L80.6156 69.0383H46.1808C29.2873 69.0383 27.9765 54.884 27.9765 50.5448C27.9765 46.2056 29.2898 32.0488 46.1808 32.0488H48.2058V24.7323H46.1808Z"/>
<path fill="black" d="M42.0611 54.0444C61.5197 54.0444 68.4215 40.1384 68.4215 28.2318C68.4215 16.3278 61.5172 2.42188 42.0611 2.42188H0V76.3522H7.67237L7.62629 9.73837H42.0611C58.9546 9.73837 60.2653 23.8926 60.2653 28.2318C60.2653 32.571 58.952 46.7279 42.0611 46.7279H40.0361V54.0444H42.0611Z"/>
</svg>
